<?xml version="1.0" encoding="UTF-8"?>
<svg width="128pt" height="128pt" version="1.1" viewBox="0 0 128 128" xmlns="http://www.w3.org/2000/svg">
 <path d="m117.5 76.16c-4.4805-7.6797-16.77-16.895-23.551-26.754 1.9219 0.89453 4.3516 0.12891 5.7617-0.38281 1.9219-0.76953 2.4336-2.4336 2.4336-3.7109-0.12891-2.0469-1.2812-2.6875-2.6875-2.6875-2.1758 0.12891-2.8164 2.6875-2.9453 2.8164-0.38281-1.5352-0.25781-3.3281 0.64062-4.8633 1.0234-2.3047 5.5039-2.6875 10.238-5.7617 2.1758-1.5352 5.1211-5.1211 5.8867-10.113 1.1523-7.5508-3.7109-13.566-12.16-14.594-10.625-1.2812-18.434 7.0391-20.223 16.512l-1.5391 0.003906v-7.9375h-3.8398v7.9375h-2.9453v-7.9375h-3.7109v7.9375h-3.0703v-7.9375h-3.8398v7.9375h-2.9453v-7.9375h-3.8398v7.9375h-2.9453v-7.9375h-3.8398v7.9375h-1.5352c-1.793-9.4727-9.6016-17.664-19.969-16.258-7.6797 1.0234-12.672 6.0156-12.16 14.465 0.25781 4.8633 3.7109 8.5742 5.8867 10.113 4.8633 3.0703 8.832 3.457 10.238 5.7617 0.89453 1.5352 0.89453 3.0703 0.64062 4.8633 0-0.12891-0.64062-2.8164-2.9453-2.8164-1.5352 0-2.6875 1.0234-2.6875 3.0703 0 1.793 1.5352 3.3281 4.4805 3.9688 1.0234 0.25781 2.6875 0.12891 3.7109-0.25781-6.9102 9.9844-19.199 19.199-23.551 26.754-3.0703 5.1211-4.8633 10.496-3.3281 19.711 1.793 10.625 11.137 18.305 21.887 18.305 5.6328 0 10.754-2.6875 13.953-7.4258 3.5859 6.1445 11.52 10.496 20.863 10.496s17.406-4.4805 20.863-10.625c3.1992 4.6094 8.4492 7.5508 14.078 7.5508 10.754 0.12891 20.098-7.6797 21.887-18.176 1.6719-9.3398-0.12109-14.59-3.1914-19.965zm-87.039-41.984c3.3281-0.64062 5.375-4.4805 5.1211-7.168-0.38281-3.1992-3.0703-6.1445-6.1445-6.1445-1.6641 0-4.3516 1.0234-4.8633 3.457-0.38281 1.9219 0.38281 3.7109 2.9453 4.8633-4.3555 0.25781-5.7617-2.4297-5.7617-5.5039 0-3.457 2.6875-6.5273 6.1445-6.5273 6.6562 0 12.16 5.375 12.289 12.031 0.12891 5.7617-0.89453 9.7266-2.8164 14.594 0.25391-4.3516-2.5625-8.0664-6.9141-9.6016zm16.254 60.031s-0.51172-10.754-13.695-11.648c-4.8633-0.12891-10.754 3.457-10.754 9.7266 0 5.8867 3.8398 8.9609 7.2969 8.9609 3.5859-0.12891 6.3984-2.8164 6.9102-6.2734 0.76953 1.9219 1.0234 4.0977 0.51172 6.1445-1.4062 4.2227-7.0391 5.8867-11.008 5.375-7.168-1.4062-9.9844-9.0898-10.754-14.465-0.76953-4.6094 0.76953-9.3438 3.7109-13.055 5.6328-7.4258 15.23-16.512 19.969-25.09 2.8164-5.1211 7.5508-10.879 8.1914-20.48h1.4062l0.51172 60.801c0.007813 0.003906-2.2969 0.003906-2.2969 0.003906zm8.9609 15.234c-1.5352-0.76953-2.8164-1.793-3.8398-2.9453v-5.2461h3.8398zm-3.9688-15.105 0.51172-60.801h3.1992l0.51172 60.801zm10.754 17.023c-1.4062-0.12891-2.8164-0.38281-4.0977-0.76953v-9.3438h4.0977zm-4.0977-17.023 0.64062-60.801h3.0703l0.51172 60.801zm29.312-65.281c0.64062-6.6562 5.6328-12.289 12.289-12.031 3.457 0.12891 6.1445 3.0703 6.1445 6.5273 0 3.0703-1.2812 5.7617-5.6328 5.375 2.4336-1.1523 3.3281-2.8164 2.9453-4.7344-0.51172-2.4336-3.1992-3.3281-4.8633-3.457-3.0703 0-5.7617 2.9453-6.1445 6.1445-0.25781 2.6875 1.793 6.5273 5.1211 7.168-4.0977 1.4062-7.168 4.7344-6.9102 9.6016-1.5391-3.0742-3.332-10.879-2.9492-14.594zm-18.176 81.41c-1.4062 0.51172-2.8164 0.76953-4.3516 0.89453v-10.113h4.3516zm-4.2227-16.129 0.51172-60.801h3.1992l0.51172 60.801zm11.008 11.52c-1.0234 1.2812-2.4336 2.5586-4.0977 3.457v-8.0625h4.0977zm-4.2266-11.52 0.51172-60.801h3.1992l0.51172 60.801zm29.824 12.16c-3.9688 0.51172-9.6016-1.2812-11.008-5.375-0.51172-2.0469-0.38281-4.2227 0.51172-6.1445 0.51172 3.457 3.3281 6.1445 6.9102 6.2734 3.457 0 7.2969-2.9453 7.2969-8.9609 0-6.2734-5.7617-9.8555-10.625-9.7266-8.1914 0.25781-13.441 5.7617-13.695 11.777h-2.3047l0.38672-60.934h1.2812c0.76953 9.6016 5.375 15.105 8.1914 20.223 4.7344 8.4492 14.336 17.535 19.969 24.961 3.0703 3.9688 3.8398 8.5742 3.8398 13.312 0 6.1445-4.8633 13.824-10.754 14.594z" fill="#FF0000"/>
</svg>
