<?xml version="1.0" encoding="UTF-8"?>
<svg width="128pt" height="128pt" version="1.1" viewBox="0 0 128 128" xmlns="http://www.w3.org/2000/svg">
 <g fill="#FF0000">
  <path d="m36.66 18.023 1.4219 0.18359 1.4141-0.18359c0.039062-0.17578 0.0625-0.35547 0.0625-0.53906 0-0.35156-0.066406-0.67969-0.20312-0.98438-0.12891-0.29688-0.30859-0.53516-0.53906-0.71094-0.23047-0.17578-0.47266-0.26562-0.73047-0.26562-0.26563 0-0.51172 0.089843-0.74219 0.26562-0.23047 0.17578-0.41016 0.41406-0.53906 0.71094-0.12891 0.30469-0.19141 0.63281-0.19141 0.98438-0.003906 0.18359 0.015625 0.36328 0.046875 0.53906z"/>
  <path d="m28.535 19.438 0.66016 9.5195 8.8906 0.60938 8.8789-0.60938 0.66016-9.5195-9.5391 1.2383zm19.934 5.4531c1.0586 0.20703 1.8242 1.1719 1.7617 2.2695-0.058594 1.1172-0.95703 1.9961-2.0625 2.0586l-0.0625 0.88672-10.027 0.69141-10.035-0.69141-0.0625-0.88672c-1.1016-0.0625-1.9961-0.94531-2.0625-2.0586-0.058594-1.0977 0.70312-2.0586 1.7617-2.2695l-0.47266-6.8555 10.871 1.4023 10.859-1.4023z"/>
  <path d="m38.082 11.859 6.2266 3.6055c0.1875-1.7734-0.38672-3.5352-1.5742-4.8555-1.1797-1.3281-2.8711-2.082-4.6523-2.082-1.7773 0-3.4727 0.75781-4.6641 2.082-1.1914 1.3203-1.7617 3.082-1.5742 4.8555z"/>
  <path d="m62.582 18.023 1.4219 0.18359 1.4141-0.18359c0.039062-0.17578 0.0625-0.35547 0.0625-0.53906 0-0.35156-0.066407-0.67969-0.20312-0.98438-0.12891-0.29688-0.30859-0.53516-0.53906-0.71094-0.23047-0.17578-0.47266-0.26562-0.73047-0.26562-0.26562 0-0.51172 0.089843-0.74219 0.26562-0.23047 0.17578-0.41016 0.41406-0.53906 0.71094-0.12891 0.30469-0.19141 0.63281-0.19141 0.98438-0.003906 0.18359 0.015625 0.36328 0.046875 0.53906z"/>
  <path d="m54.457 19.438 0.66016 9.5195 8.8906 0.60938 8.8789-0.60938 0.66016-9.5195-9.5391 1.2383zm19.934 5.4531c1.0586 0.20703 1.8242 1.1719 1.7617 2.2695-0.058594 1.1172-0.95703 1.9961-2.0625 2.0586l-0.0625 0.88672-10.027 0.69141-10.035-0.69141-0.0625-0.88672c-1.1016-0.0625-1.9961-0.94531-2.0625-2.0586-0.058594-1.0977 0.70312-2.0586 1.7617-2.2695l-0.47266-6.8555 10.871 1.4023 10.859-1.4023z"/>
  <path d="m64.004 11.859 6.2266 3.6055c0.1875-1.7734-0.38672-3.5352-1.5742-4.8555-1.1836-1.3281-2.8711-2.082-4.6523-2.082-1.7773 0-3.4727 0.75781-4.6641 2.082-1.1914 1.3203-1.7617 3.082-1.5742 4.8555z"/>
  <path d="m88.504 18.023 1.4219 0.18359 1.4141-0.18359c0.039062-0.17578 0.0625-0.35547 0.0625-0.53906 0-0.35156-0.066406-0.67969-0.20312-0.98438-0.12891-0.29688-0.30859-0.53516-0.53906-0.71094-0.23047-0.17578-0.47266-0.26562-0.73047-0.26562-0.26563 0-0.51172 0.089843-0.74219 0.26562-0.23047 0.17578-0.41016 0.41406-0.53906 0.71094-0.12891 0.30469-0.19141 0.63281-0.19141 0.98438-0.003906 0.18359 0.011719 0.36328 0.046875 0.53906z"/>
  <path d="m80.375 19.438 0.66016 9.5195 8.8906 0.60938 8.8789-0.60938 0.66016-9.5195-9.5391 1.2383zm19.938 5.4531c1.0586 0.20703 1.8242 1.1719 1.7617 2.2695-0.058594 1.1172-0.95703 1.9961-2.0625 2.0586l-0.0625 0.88672-10.027 0.69141-10.035-0.69141-0.0625-0.88672c-1.1016-0.0625-1.9961-0.94531-2.0625-2.0586-0.058594-1.0977 0.70312-2.0586 1.7617-2.2695l-0.47266-6.8555 10.871 1.4023 10.859-1.4023z"/>
  <path d="m89.926 11.859 6.2266 3.6055c0.1875-1.7734-0.38672-3.5352-1.5742-4.8555-1.1836-1.3281-2.875-2.082-4.6523-2.082-1.7773 0-3.4727 0.75781-4.6641 2.082-1.1914 1.3203-1.7617 3.082-1.5742 4.8555z"/>
  <path d="m23.133 40.098 1.4219 0.18359 1.4141-0.18359c0.039062-0.17578 0.0625-0.35547 0.0625-0.53906 0-0.35156-0.066406-0.67969-0.20312-0.98438-0.12891-0.29688-0.30859-0.53516-0.53906-0.71094-0.23047-0.17578-0.47266-0.26562-0.73047-0.26562-0.26562 0-0.51172 0.089844-0.74219 0.26562-0.23047 0.17578-0.41016 0.41406-0.53906 0.71094-0.12891 0.30469-0.19141 0.63281-0.19141 0.98438-0.003907 0.18359 0.011718 0.36328 0.046874 0.53906z"/>
  <path d="m15.004 41.508 0.66016 9.5195 8.8906 0.60938 8.8789-0.60938 0.66016-9.5195-9.5391 1.2383zm19.938 5.4531c1.0586 0.20703 1.8242 1.1719 1.7617 2.2695-0.058594 1.1172-0.95703 1.9961-2.0625 2.0586l-0.0625 0.88672-10.027 0.69141-10.035-0.69141-0.0625-0.88672c-1.1016-0.0625-1.9961-0.94531-2.0625-2.0586-0.058594-1.0977 0.70312-2.0586 1.7617-2.2695l-0.47266-6.8555 10.871 1.4023 10.859-1.4023z"/>
  <path d="m24.555 33.93 6.2266 3.6055c0.1875-1.7734-0.38672-3.5352-1.5742-4.8555-1.1836-1.3242-2.875-2.082-4.6523-2.082-1.7773 0-3.4727 0.75781-4.6641 2.082-1.1914 1.3203-1.7617 3.0859-1.5742 4.8555z"/>
  <path d="m49.055 40.098 1.4219 0.18359 1.4141-0.18359c0.039063-0.17578 0.0625-0.35547 0.0625-0.53906 0-0.35156-0.066406-0.67969-0.20312-0.98438-0.12891-0.29688-0.30859-0.53516-0.53906-0.71094-0.23047-0.17578-0.47266-0.26562-0.73047-0.26562-0.26562 0-0.51172 0.089844-0.74219 0.26562s-0.41016 0.41406-0.53906 0.71094c-0.12891 0.30469-0.19141 0.63281-0.19141 0.98438-0.003906 0.18359 0.011719 0.36328 0.046876 0.53906z"/>
  <path d="m40.926 41.508 0.66016 9.5195 8.8906 0.60938 8.8789-0.60938 0.66016-9.5195-9.5391 1.2383zm19.938 5.4531c1.0586 0.20703 1.8242 1.1719 1.7617 2.2695-0.058594 1.1172-0.95703 1.9961-2.0625 2.0586l-0.0625 0.88672-10.027 0.69141-10.035-0.69141-0.0625-0.88672c-1.1016-0.0625-1.9961-0.94531-2.0625-2.0586-0.058594-1.0977 0.70312-2.0586 1.7617-2.2695l-0.47266-6.8555 10.871 1.4023 10.859-1.4023z"/>
  <path d="m50.477 33.93 6.2266 3.6055c0.1875-1.7734-0.38672-3.5352-1.5742-4.8555-1.1836-1.3242-2.875-2.082-4.6523-2.082-1.7773 0-3.4727 0.75781-4.6641 2.082-1.1914 1.3203-1.7617 3.0859-1.5742 4.8555z"/>
  <path d="m74.973 40.098 1.4219 0.18359 1.4141-0.18359c0.039062-0.17578 0.0625-0.35547 0.0625-0.53906 0-0.35156-0.066406-0.67969-0.20312-0.98438-0.12891-0.29688-0.30859-0.53516-0.53906-0.71094-0.23047-0.17578-0.47266-0.26562-0.73047-0.26562-0.26563 0-0.51172 0.089844-0.74219 0.26562s-0.41016 0.41406-0.53906 0.71094c-0.12891 0.30469-0.19141 0.63281-0.19141 0.98438-0.003906 0.18359 0.015625 0.36328 0.046875 0.53906z"/>
  <path d="m66.848 41.508 0.66016 9.5195 8.8906 0.60938 8.8789-0.60938 0.66016-9.5195-9.5391 1.2383zm19.938 5.4531c1.0586 0.20703 1.8242 1.1719 1.7617 2.2695-0.058594 1.1172-0.95703 1.9961-2.0625 2.0586l-0.0625 0.88672-10.027 0.69141-10.035-0.69141-0.0625-0.88672c-1.1016-0.0625-1.9961-0.94531-2.0625-2.0586-0.058594-1.0977 0.70312-2.0586 1.7617-2.2695l-0.47266-6.8555 10.871 1.4023 10.859-1.4023z"/>
  <path d="m76.398 33.93 6.2266 3.6055c0.1875-1.7734-0.38672-3.5352-1.5742-4.8555-1.1836-1.3242-2.875-2.082-4.6523-2.082-1.7773 0-3.4727 0.75781-4.6641 2.082-1.1914 1.3203-1.7617 3.0859-1.5742 4.8555z"/>
  <path d="m100.89 40.098 1.4219 0.18359 1.4141-0.18359c0.039062-0.17578 0.0625-0.35547 0.0625-0.53906 0-0.35156-0.066407-0.67969-0.20312-0.98438-0.12891-0.29688-0.30859-0.53516-0.53906-0.71094s-0.47266-0.26562-0.73047-0.26562c-0.26562 0-0.51172 0.089844-0.74219 0.26562s-0.41016 0.41406-0.53906 0.71094c-0.12891 0.30469-0.19141 0.63281-0.19141 0.98438-0.003906 0.18359 0.015625 0.36328 0.046875 0.53906z"/>
  <path d="m92.77 41.508 0.66016 9.5195 8.8906 0.60938 8.8789-0.60938 0.66016-9.5195-9.5391 1.2383zm19.934 5.4531c1.0586 0.20703 1.8242 1.1719 1.7617 2.2695-0.058594 1.1172-0.95703 1.9961-2.0625 2.0586l-0.0625 0.88672-10.027 0.69141-10.035-0.69141-0.0625-0.88672c-1.1016-0.0625-1.9961-0.94531-2.0625-2.0586-0.058594-1.0977 0.70312-2.0586 1.7617-2.2695l-0.47266-6.8555 10.871 1.4023 10.859-1.4023z"/>
  <path d="m102.32 33.93 6.2266 3.6055c0.1875-1.7734-0.38672-3.5352-1.5742-4.8555-1.1836-1.3242-2.875-2.082-4.6523-2.082s-3.4727 0.75781-4.6641 2.082c-1.1914 1.3203-1.7617 3.0859-1.5742 4.8555z"/>
  <path d="m36.66 62.363 1.4219 0.18359 1.4141-0.18359c0.039062-0.17578 0.0625-0.35547 0.0625-0.53906 0-0.35156-0.066406-0.67969-0.20312-0.98438-0.12891-0.29688-0.30859-0.53516-0.53906-0.71094-0.23047-0.17578-0.47266-0.26562-0.73047-0.26562-0.26563 0-0.51172 0.089844-0.74219 0.26562-0.23047 0.17578-0.41016 0.41406-0.53906 0.71094-0.12891 0.30469-0.19141 0.63281-0.19141 0.98438-0.003906 0.18359 0.015625 0.36328 0.046875 0.53906z"/>
  <path d="m28.535 63.777 0.66016 9.5195 8.8906 0.60938 8.8789-0.60938 0.66016-9.5195-9.5391 1.2383zm19.934 5.4531c1.0586 0.20703 1.8242 1.1719 1.7617 2.2695-0.058594 1.1172-0.95703 1.9961-2.0625 2.0586l-0.0625 0.88672-10.027 0.69141-10.035-0.69141-0.0625-0.88672c-1.1016-0.0625-1.9961-0.94531-2.0625-2.0586-0.058594-1.0977 0.70312-2.0586 1.7617-2.2695l-0.47266-6.8555 10.871 1.4023 10.859-1.4023z"/>
  <path d="m38.082 56.199 6.2266 3.6055c0.1875-1.7734-0.38672-3.5352-1.5742-4.8555-1.1836-1.3242-2.875-2.082-4.6523-2.082-1.7773 0-3.4727 0.75781-4.6641 2.082-1.1914 1.3203-1.7617 3.0859-1.5742 4.8555z"/>
  <path d="m62.582 62.363 1.4219 0.18359 1.4141-0.18359c0.039062-0.17578 0.0625-0.35547 0.0625-0.53906 0-0.35156-0.066407-0.67969-0.20312-0.98438-0.12891-0.29688-0.30859-0.53516-0.53906-0.71094-0.23047-0.17578-0.47266-0.26562-0.73047-0.26562-0.26562 0-0.51172 0.089844-0.74219 0.26562-0.23047 0.17578-0.41016 0.41406-0.53906 0.71094-0.12891 0.30469-0.19141 0.63281-0.19141 0.98438-0.003906 0.18359 0.015625 0.36328 0.046875 0.53906z"/>
  <path d="m54.457 63.777 0.66016 9.5195 8.8906 0.60938 8.8789-0.60938 0.66016-9.5195-9.5391 1.2383zm19.934 5.4531c1.0586 0.20703 1.8242 1.1719 1.7617 2.2695-0.058594 1.1172-0.95703 1.9961-2.0625 2.0586l-0.0625 0.88672-10.027 0.69141-10.035-0.69141-0.0625-0.88672c-1.1016-0.0625-1.9961-0.94531-2.0625-2.0586-0.058594-1.0977 0.70312-2.0586 1.7617-2.2695l-0.47266-6.8555 10.871 1.4023 10.859-1.4023z"/>
  <path d="m64.004 56.199 6.2266 3.6055c0.1875-1.7734-0.38672-3.5352-1.5742-4.8555-1.1836-1.3242-2.875-2.082-4.6523-2.082s-3.4727 0.75781-4.6641 2.082c-1.1914 1.3203-1.7617 3.0859-1.5742 4.8555z"/>
  <path d="m88.504 62.363 1.4219 0.18359 1.4141-0.18359c0.039062-0.17578 0.0625-0.35547 0.0625-0.53906 0-0.35156-0.066406-0.67969-0.20312-0.98438-0.12891-0.29688-0.30859-0.53516-0.53906-0.71094-0.23047-0.17578-0.47266-0.26562-0.73047-0.26562-0.26563 0-0.51172 0.089844-0.74219 0.26562-0.23047 0.17578-0.41016 0.41406-0.53906 0.71094-0.12891 0.30469-0.19141 0.63281-0.19141 0.98438-0.003906 0.18359 0.011719 0.36328 0.046875 0.53906z"/>
  <path d="m80.375 63.777 0.66016 9.5195 8.8906 0.60938 8.8789-0.60938 0.66016-9.5195-9.5391 1.2383zm19.938 5.4531c1.0586 0.20703 1.8242 1.1719 1.7617 2.2695-0.058594 1.1172-0.95703 1.9961-2.0625 2.0586l-0.0625 0.88672-10.027 0.69141-10.035-0.69141-0.0625-0.88672c-1.1016-0.0625-1.9961-0.94531-2.0625-2.0586-0.058594-1.0977 0.70312-2.0586 1.7617-2.2695l-0.47266-6.8555 10.871 1.4023 10.859-1.4023z"/>
  <path d="m89.926 56.199 6.2266 3.6055c0.1875-1.7734-0.38672-3.5352-1.5742-4.8555-1.1836-1.3242-2.875-2.082-4.6523-2.082-1.7773 0-3.4727 0.75781-4.6641 2.082-1.1914 1.3203-1.7617 3.0859-1.5742 4.8555z"/>
  <path d="m23.133 84.438 1.4219 0.18359 1.4141-0.18359c0.039062-0.17578 0.0625-0.35547 0.0625-0.53906 0-0.35156-0.066406-0.67969-0.20312-0.98438-0.12891-0.29687-0.30859-0.53516-0.53906-0.71094-0.23047-0.17578-0.47266-0.26562-0.73047-0.26562-0.26562 0-0.51172 0.089844-0.74219 0.26562-0.23047 0.17578-0.41016 0.41406-0.53906 0.71094-0.12891 0.30469-0.19141 0.63281-0.19141 0.98438-0.003907 0.18359 0.011718 0.36328 0.046874 0.53906z"/>
  <path d="m15.004 85.848 0.66016 9.5195 8.8906 0.60937 8.8789-0.60937 0.66016-9.5195-9.5391 1.2383zm19.938 5.4531c1.0586 0.20703 1.8242 1.1719 1.7617 2.2695-0.058594 1.1172-0.95703 1.9961-2.0625 2.0586l-0.0625 0.88672-10.027 0.69141-10.035-0.69141-0.0625-0.88672c-1.1016-0.0625-1.9961-0.94531-2.0625-2.0586-0.058594-1.0977 0.70312-2.0586 1.7617-2.2695l-0.47266-6.8555 10.871 1.4023 10.859-1.4023z"/>
  <path d="m24.555 78.27 6.2266 3.6055c0.1875-1.7734-0.38672-3.5352-1.5742-4.8555-1.1836-1.3242-2.875-2.082-4.6523-2.082-1.7773 0-3.4727 0.75781-4.6641 2.082-1.1914 1.3203-1.7617 3.0859-1.5742 4.8555z"/>
  <path d="m49.055 84.438 1.4219 0.18359 1.4141-0.18359c0.039063-0.17578 0.0625-0.35547 0.0625-0.53906 0-0.35156-0.066406-0.67969-0.20312-0.98438-0.12891-0.29687-0.30859-0.53516-0.53906-0.71094-0.23047-0.17578-0.47266-0.26562-0.73047-0.26562-0.26562 0-0.51172 0.089844-0.74219 0.26562s-0.41016 0.41406-0.53906 0.71094c-0.12891 0.30469-0.19141 0.63281-0.19141 0.98438-0.003906 0.18359 0.011719 0.36328 0.046876 0.53906z"/>
  <path d="m40.926 85.848 0.66016 9.5195 8.8906 0.60937 8.8789-0.60937 0.66016-9.5195-9.5391 1.2383zm19.938 5.4531c1.0586 0.20703 1.8242 1.1719 1.7617 2.2695-0.058594 1.1172-0.95703 1.9961-2.0625 2.0586l-0.0625 0.88672-10.027 0.69141-10.035-0.69141-0.0625-0.88672c-1.1016-0.0625-1.9961-0.94531-2.0625-2.0586-0.058594-1.0977 0.70312-2.0586 1.7617-2.2695l-0.47266-6.8555 10.871 1.4023 10.859-1.4023z"/>
  <path d="m50.477 78.27 6.2266 3.6055c0.1875-1.7734-0.38672-3.5352-1.5742-4.8555-1.1836-1.3242-2.875-2.082-4.6523-2.082-1.7773 0-3.4727 0.75781-4.6641 2.082-1.1914 1.3203-1.7617 3.0859-1.5742 4.8555z"/>
  <path d="m74.973 84.438 1.4219 0.18359 1.4141-0.18359c0.039062-0.17578 0.0625-0.35547 0.0625-0.53906 0-0.35156-0.066406-0.67969-0.20312-0.98438-0.12891-0.29687-0.30859-0.53516-0.53906-0.71094-0.23047-0.17578-0.47266-0.26562-0.73047-0.26562-0.26563 0-0.51172 0.089844-0.74219 0.26562s-0.41016 0.41406-0.53906 0.71094c-0.12891 0.30469-0.19141 0.63281-0.19141 0.98438-0.003906 0.18359 0.015625 0.36328 0.046875 0.53906z"/>
  <path d="m66.848 85.848 0.66016 9.5195 8.8906 0.60937 8.8789-0.60937 0.66016-9.5195-9.5391 1.2383zm19.938 5.4531c1.0586 0.20703 1.8242 1.1719 1.7617 2.2695-0.058594 1.1172-0.95703 1.9961-2.0625 2.0586l-0.0625 0.88672-10.027 0.69141-10.035-0.69141-0.0625-0.88672c-1.1016-0.0625-1.9961-0.94531-2.0625-2.0586-0.058594-1.0977 0.70312-2.0586 1.7617-2.2695l-0.47266-6.8555 10.871 1.4023 10.859-1.4023z"/>
  <path d="m76.398 78.27 6.2266 3.6055c0.1875-1.7734-0.38672-3.5352-1.5742-4.8555-1.1836-1.3242-2.875-2.082-4.6523-2.082-1.7773 0-3.4727 0.75781-4.6641 2.082-1.1914 1.3203-1.7617 3.0859-1.5742 4.8555z"/>
  <path d="m100.89 84.438 1.4219 0.18359 1.4141-0.18359c0.039062-0.17578 0.0625-0.35547 0.0625-0.53906 0-0.35156-0.066407-0.67969-0.20312-0.98438-0.12891-0.29687-0.30859-0.53516-0.53906-0.71094s-0.47266-0.26562-0.73047-0.26562c-0.26562 0-0.51172 0.089844-0.74219 0.26562s-0.41016 0.41406-0.53906 0.71094c-0.12891 0.30469-0.19141 0.63281-0.19141 0.98438-0.003906 0.18359 0.015625 0.36328 0.046875 0.53906z"/>
  <path d="m92.77 85.848 0.66016 9.5195 8.8906 0.60937 8.8789-0.60937 0.66016-9.5195-9.5391 1.2383zm19.934 5.4531c1.0586 0.20703 1.8242 1.1719 1.7617 2.2695-0.058594 1.1172-0.95703 1.9961-2.0625 2.0586l-0.0625 0.88672-10.027 0.69141-10.035-0.69141-0.0625-0.88672c-1.1016-0.0625-1.9961-0.94531-2.0625-2.0586-0.058594-1.0977 0.70312-2.0586 1.7617-2.2695l-0.47266-6.8555 10.871 1.4023 10.859-1.4023z"/>
  <path d="m102.32 78.27 6.2266 3.6055c0.1875-1.7734-0.38672-3.5352-1.5742-4.8555-1.1836-1.3242-2.875-2.082-4.6523-2.082s-3.4727 0.75781-4.6641 2.082c-1.1914 1.3203-1.7617 3.0859-1.5742 4.8555z"/>
  <path d="m10.742 62.363 1.4219 0.18359 1.4141-0.18359c0.039063-0.17578 0.0625-0.35547 0.0625-0.53906 0-0.35156-0.066406-0.67969-0.20312-0.98438-0.12891-0.29688-0.30859-0.53516-0.53906-0.71094-0.23047-0.17578-0.47266-0.26562-0.73047-0.26562-0.26562 0-0.51172 0.089844-0.74219 0.26562-0.23047 0.17578-0.41016 0.41406-0.53906 0.71094-0.12891 0.30469-0.19141 0.63281-0.19141 0.98438-0.003906 0.18359 0.011719 0.36328 0.046876 0.53906z"/>
  <path d="m2.6133 63.777 0.66016 9.5195 8.8906 0.60938 8.8789-0.60938 0.66016-9.5195-9.5391 1.2383zm19.938 5.4531c1.0586 0.20703 1.8242 1.1719 1.7617 2.2695-0.058594 1.1172-0.95703 1.9961-2.0625 2.0586l-0.0625 0.88672-10.027 0.69141-10.035-0.69141-0.0625-0.88672c-1.0977-0.0625-1.9922-0.94531-2.0586-2.0625-0.058594-1.0977 0.70312-2.0586 1.7617-2.2695l-0.47266-6.8555 10.871 1.4023 10.859-1.4023z"/>
  <path d="m12.164 56.199 6.2266 3.6055c0.1875-1.7734-0.38672-3.5352-1.5742-4.8555-1.1836-1.3242-2.875-2.082-4.6523-2.082-1.7773 0-3.4727 0.75781-4.6641 2.082-1.1914 1.3203-1.7617 3.0859-1.5742 4.8555z"/>
  <path d="m114.43 62.363 1.4219 0.18359 1.4141-0.18359c0.039062-0.17578 0.0625-0.35547 0.0625-0.53906 0-0.35156-0.066407-0.67969-0.20312-0.98438-0.12891-0.29688-0.30859-0.53516-0.53906-0.71094-0.23047-0.17578-0.47266-0.26562-0.73047-0.26562-0.26562 0-0.51172 0.089844-0.74219 0.26562-0.23047 0.17578-0.41016 0.41406-0.53906 0.71094-0.12891 0.30469-0.19141 0.63281-0.19141 0.98438-0.003906 0.18359 0.011719 0.36328 0.046875 0.53906z"/>
  <path d="m106.3 63.777 0.66016 9.5195 8.8906 0.60938 8.8789-0.60938 0.66016-9.5195-9.5391 1.2383zm19.938 5.4531c1.0586 0.20703 1.8242 1.1719 1.7617 2.2695-0.058594 1.1172-0.95703 1.9961-2.0625 2.0586l-0.0625 0.88672-10.027 0.69141-10.035-0.69141-0.0625-0.88672c-1.1016-0.0625-1.9961-0.94531-2.0625-2.0586-0.058594-1.0977 0.70312-2.0586 1.7617-2.2695l-0.47266-6.8555 10.871 1.4023 10.859-1.4023z"/>
  <path d="m115.85 56.199 6.2266 3.6055c0.1875-1.7734-0.38672-3.5352-1.5742-4.8555-1.1836-1.3242-2.875-2.082-4.6523-2.082s-3.4727 0.75781-4.6641 2.082c-1.1914 1.3203-1.7617 3.0859-1.5742 4.8555z"/>
  <path d="m36.66 106.7 1.4219 0.18359 1.4141-0.18359c0.039062-0.17578 0.0625-0.35547 0.0625-0.53906 0-0.35156-0.066406-0.67969-0.20312-0.98437-0.12891-0.29688-0.30859-0.53516-0.53906-0.71094-0.23047-0.17578-0.47266-0.26562-0.73047-0.26562-0.26563 0-0.51172 0.089844-0.74219 0.26562s-0.41016 0.41406-0.53906 0.71094c-0.12891 0.30469-0.19141 0.63281-0.19141 0.98437-0.003906 0.18359 0.015625 0.36328 0.046875 0.53906z"/>
  <path d="m28.535 108.12 0.66016 9.5195 8.8906 0.60938 8.8789-0.60938 0.66016-9.5195-9.5391 1.2383zm19.934 5.4492c1.0586 0.20703 1.8242 1.1719 1.7617 2.2695-0.058594 1.1133-0.95703 1.9961-2.0625 2.0586l-0.0625 0.88672-10.027 0.69141-10.035-0.69141-0.0625-0.88672c-1.1016-0.0625-1.9961-0.94531-2.0625-2.0586-0.058594-1.0977 0.70312-2.0586 1.7617-2.2695l-0.47266-6.8555 10.871 1.4023 10.859-1.4023z"/>
  <path d="m38.082 100.54 6.2266 3.6055c0.1875-1.7734-0.38672-3.5352-1.5742-4.8555-1.1836-1.3242-2.875-2.082-4.6523-2.082-1.7773 0-3.4727 0.75781-4.6641 2.082-1.1914 1.3203-1.7617 3.082-1.5742 4.8555z"/>
  <path d="m62.582 106.7 1.4219 0.18359 1.4141-0.18359c0.039062-0.17578 0.0625-0.35547 0.0625-0.53906 0-0.35156-0.066407-0.67969-0.20312-0.98437-0.12891-0.29688-0.30859-0.53516-0.53906-0.71094s-0.47266-0.26562-0.73047-0.26562c-0.26562 0-0.51172 0.089844-0.74219 0.26562s-0.41016 0.41406-0.53906 0.71094c-0.12891 0.30469-0.19141 0.63281-0.19141 0.98437-0.003906 0.18359 0.015625 0.36328 0.046875 0.53906z"/>
  <path d="m54.457 108.12 0.66016 9.5195 8.8906 0.60938 8.8789-0.60938 0.66016-9.5195-9.5391 1.2383zm19.934 5.4492c1.0586 0.20703 1.8242 1.1719 1.7617 2.2695-0.058594 1.1133-0.95703 1.9961-2.0625 2.0586l-0.0625 0.88672-10.027 0.69141-10.035-0.69141-0.0625-0.88672c-1.1016-0.0625-1.9961-0.94531-2.0625-2.0586-0.058594-1.0977 0.70312-2.0586 1.7617-2.2695l-0.47266-6.8555 10.871 1.4023 10.859-1.4023z"/>
  <path d="m64.004 100.54 6.2266 3.6055c0.1875-1.7734-0.38672-3.5352-1.5742-4.8555-1.1836-1.3242-2.875-2.082-4.6523-2.082s-3.4727 0.75781-4.6641 2.082c-1.1914 1.3203-1.7617 3.082-1.5742 4.8555z"/>
  <path d="m88.504 106.7 1.4219 0.18359 1.4141-0.18359c0.039062-0.17578 0.0625-0.35547 0.0625-0.53906 0-0.35156-0.066406-0.67969-0.20312-0.98437-0.12891-0.29688-0.30859-0.53516-0.53906-0.71094-0.23047-0.17578-0.47266-0.26562-0.73047-0.26562-0.26563 0-0.51172 0.089844-0.74219 0.26562s-0.41016 0.41406-0.53906 0.71094c-0.12891 0.30469-0.19141 0.63281-0.19141 0.98437-0.003906 0.18359 0.011719 0.36328 0.046875 0.53906z"/>
  <path d="m80.375 108.12 0.66016 9.5195 8.8906 0.60938 8.8789-0.60938 0.66016-9.5195-9.5391 1.2383zm19.938 5.4492c1.0586 0.20703 1.8242 1.1719 1.7617 2.2695-0.058594 1.1133-0.95703 1.9961-2.0625 2.0586l-0.0625 0.88672-10.027 0.69141-10.035-0.69141-0.0625-0.88672c-1.1016-0.0625-1.9961-0.94531-2.0625-2.0586-0.058594-1.0977 0.70312-2.0586 1.7617-2.2695l-0.47266-6.8555 10.871 1.4023 10.859-1.4023z"/>
  <path d="m89.926 100.54 6.2266 3.6055c0.1875-1.7734-0.38672-3.5352-1.5742-4.8555-1.1836-1.3242-2.875-2.082-4.6523-2.082-1.7773 0-3.4727 0.75781-4.6641 2.082-1.1914 1.3203-1.7617 3.082-1.5742 4.8555z"/>
 </g>
</svg>
