<?xml version="1.0" encoding="UTF-8"?>
<svg width="128pt" height="128pt" version="1.1" viewBox="0 0 128 128" xmlns="http://www.w3.org/2000/svg">
 <g fill="#FF0000">
  <path d="m92.898 52.926c1.1758-0.94141 2.25-2 3.2109-3.1758 0.35156-0.44141 0.51172-0.97656 0.48828-1.6406-0.039062-0.76172-0.023437-1.5117-0.011718-2.2344 0-0.19141-0.050782-0.19922-0.16016-0.058594-0.51172 0.69141-1.0586 1.375-1.625 2.0586-0.42578 0.51172-0.82422 0.94922-1.4492 0.98828-4.1406 0.26172-7.6914-2.7266-10.34-5.5117-0.14062-0.14844-0.125-0.17578 0.050781-0.058593 1.3242 0.83984 2.7383 1.6016 4.2383 2.3008 1.625 0.76172 4.125 1.7734 5.8984 1.0508 0.75-0.30859 1.125-1.1094 1.1406-1.8516 0.011718-1.25 0.011718-2.4102-0.011719-3.4883-0.011719-0.39063-0.089844-0.39844-0.25-0.050782-0.30859 0.66016-0.71094 1.3242-1.2109 2.0156-1.125 1.5391-2.9258 1.25-4.5742 1.2383-0.16016 0-0.30859-0.074218-0.41016-0.19922-0.60156-0.76172-1.1914-1.5-1.7734-2.2109-3.2109-3.8906-7.9766-5.875-13.023-4.7617-0.16016 0.039062-0.17578 0.011718-0.023438-0.074219 4.9258-2.7266 10.051-0.28516 13.66 3.2734 0.058594 0.058594 0.089844 0.058594 0.039063-0.023437-2-4.3398-5.7734-7.6484-10.16-9.3984-4.1406-1.6406-8.3008-1.1758-11.539 1.8906-0.039062 0.039063-0.074219 0.039063-0.10938 0-3.5117-3.8398-8.625-6.3086-13.699-3.5898-1.6602 0.89063-3.1094 2.1094-4.625 3.2109-2.5156 1.8242-5.2891 3.1016-8.3086 3.8516-0.039062 0.011719-0.058593 0.039063-0.058593 0.074219l-0.011719 6.0391c0 0.023437 0.023438 0.039062 0.050781 0.023437 2.0898-1.5391 4.7266-2.1914 7.2734-2.3516 0.16016-0.011719 0.16016 0.011719 0.011719 0.074219-2.25 0.92578-4.3398 2.1758-6.2891 3.7383-2.5586 2.0586-4.9883 4.2852-7.25 6.6758-0.023437 0.023438-0.011719 0.039062 0.011719 0.039062 2.4102 0.55859 4.5117 0.21094 6.7617-0.80078 2.0156-0.89844 3.8906-2.0898 5.7383-3.2734 0.72656-0.46094 1.375-0.91016 1.9766-1.3398 0.22656-0.16016 0.25-0.14844 0.058594 0.074219-1.4102 1.6094-2.9609 3.1484-4.6484 4.6016-2.6406 2.2734-5.5508 3.9258-9.0898 2.9414-0.011719 0-0.023438 0-0.023438 0.023437l0.011719 5.5508c0 0.074219 0.023438 0.14062 0.074219 0.19141 2.6758 2.875 6 4.9766 10.012 5.0898 0.10156 0 0.10156 0.023438 0.023437 0.089844-1.4492 0.94141-2.9492 1.5586-4.6914 1.3984-0.125-0.011719-0.14062 0.023437-0.050781 0.10937 2.5 2.3984 5.75 2.8906 9.0742 2.5742 0.14062-0.011719 0.16016 0.023438 0.058594 0.14062l-15.93 16.273c-0.023437 0.039062-0.023437 0.089844 0 0.10938l16.676 15.148c0.050781 0.050782 0.125 0.058594 0.19922 0.023438l11.461-5.7734c0.089844-0.039062 0.089844-0.074218-0.011719-0.10938l-6.3516-2.1602c-0.074219-0.023437-0.14062-0.089844-0.16016-0.16016l-6.6914-18.551c-0.089844-0.26172-0.050781-0.27344 0.10938-0.058594l13.844 17.465c0.074219 0.089843 0.10156 0.074218 0.10156-0.039063l-0.011719-3.9492c0-0.023437 0.023437-0.050781 0.050781-0.050781h5.2266c0.050781 0 0.074219 0.039063 0.074219 0.074219v4.0117c0 0.14063 0.039062 0.14844 0.10937 0.039063 0.10156-0.14062 0.19922-0.28516 0.32422-0.44141 4.1484-5.3398 8.3086-10.66 12.5-15.961 0.27344-0.35156 0.61328-0.82422 0.92578-1.1992 0.10156-0.125 0.125-0.10937 0.074219 0.039063l-6.6758 18.676c-0.011719 0.039063-0.050781 0.074219-0.089844 0.089844l-6.4492 2.1992c-0.023438 0.011719-0.023438 0.050781 0 0.058593l11.488 5.7891c0.058593 0.039063 0.14844 0.023437 0.19922-0.023437l16.586-15.109c0.039063-0.039062 0.039063-0.089843 0-0.125l-15.758-16.375c-0.058593-0.058593-0.050781-0.10156 0.039063-0.089843 1.1758 0.058593 2.375 0.074219 3.6016 0.023437 4.3906-0.17578 9.1133-2.3398 9.7734-7.1992 0.023437-0.19922 0-0.21094-0.089844-0.023438-0.35156 0.75-0.89844 1.3984-1.6406 1.9414-1.8398 1.3516-4.0898 1.3086-5.9883 0.023438-0.19141-0.125-0.16016-0.16016 0.050781-0.125 3.1758 0.63672 6.2891-0.89062 7.5898-3.8906 0.30078-0.69141 0.30078-1.2109 0.28516-1.9609-0.011718-1.2266-0.011718-2.4414 0.011719-3.6484 0.003906-0.078125 0.046875-0.15625 0.10547-0.20312zm-40.801-18.637c4.1016-2.1914 9.6992-0.73828 10.898 4.2148 0.125 0.51172 0.19141 1.2891 0.19141 2.3086v3.0742c0 0.35156-0.039062 0.35156-0.125 0.011719-0.375-1.6484-0.94922-3.5898-1.6992-5.0508-1.7734-3.4609-5.4766-5.0898-9.25-4.4883-0.14062 0.015625-0.15625 0-0.015625-0.070313zm29.352 26.383c-0.19141 0.42578-0.375 0.85156-0.58984 1.2891-1.3008 2.7383-2.6016 5.4766-3.8984 8.1992-0.10156 0.21094-0.16016 0.44922-0.16016 0.69141-0.011719 0.82422-0.023437 1.625-0.023437 2.4102 0 0.089843-0.039063 0.17578-0.10156 0.25l-9.6367 10.352c-0.039062 0.039063-0.089843 0.058594-0.14062 0.058594l-7.2891 0.011719c-0.089844 0-0.17578-0.039063-0.23828-0.10156l-9.6211-10.336c-0.058594-0.058594-0.089844-0.14062-0.089844-0.22656l-0.023437-2.5898c0-0.050782-0.011719-0.10156-0.039063-0.14063l-4.4258-9.0898c-0.039063-0.074219-0.023437-0.14062 0.039063-0.19922 0.64844-0.64844 1.25-1.3086 1.8086-1.9766 1.3242-1.6016 0.96094-4.2148 0.074219-5.8984-0.023438-0.039062-0.023438-0.074219 0-0.10938l5.4766-10.789c0.023438-0.050781 0.089844-0.074218 0.14063-0.039062l10.391 5.7617c0.089844 0.050781 0.19141 0.050781 0.27344 0l10.41-5.7734c0.023438-0.011719 0.058594 0 0.074219 0.023438l5.6094 11c0.039062 0.074219 0.050781 0.16016 0.023438 0.25-0.69922 2.625 0.69141 4.6094 1.9414 6.7383 0.054687 0.070312 0.054687 0.16016 0.015625 0.23438zm6.8086-2.9258c-1.4492 0.53906-3.0117 0.22656-4.2148-0.73828-1.0117-0.80859-1.5742-1.8086-2.0586-3.0391-0.058594-0.16016-0.039063-0.19141 0.089844-0.050781 0.125 0.125 0.23828 0.32422 0.375 0.44922 1.875 1.8242 4.5117 2.1094 6.6484 0.58984 1.3398-0.96094 2.0742-2.1602 2.6602-3.6602 0.058594-0.16016 0.089844-0.14844 0.089844 0.011719-0.039062 2.6016-0.91016 5.4492-3.5898 6.4414z"/>
  <path d="m69.09 60.824c-0.011719-0.023438-0.039063-0.023438-0.058594 0l-3.3906 3.9102c-0.074219 0.089844-0.10938 0.074219-0.10938-0.039063v-5.2891c0-0.039062 0.011719-0.058594 0.050781-0.074219l7.1602-2.7109c0.074218-0.023438 0.14844-0.011719 0.21094 0.050781l3.5586 3.6602c0.039062 0.039063 0.011719 0.10156-0.039063 0.10156l-3.2109 0.011718c-0.089844 0-0.14062 0.039063-0.16016 0.10938-0.73828 1.9102-2.9883 2.0742-4.0117 0.27344z"/>
  <path d="m57.375 60.809c-0.10156 0.14062-0.19922 0.26172-0.30859 0.39844-1.1484 1.4609-3.125 0.97656-3.6992-0.69922-0.011719-0.039062-0.050782-0.058593-0.089844-0.058593l-3.3906-0.023438c-0.050781 0-0.058594-0.050781-0.039063-0.089843l3.5742-3.6094c0.074219-0.074218 0.17578-0.10156 0.27344-0.058593l7.1484 2.6992c0.050781 0.011718 0.074219 0.058593 0.074219 0.10937l0.011719 5.2266c0 0.14062-0.039063 0.14844-0.125 0.050781l-3.3906-3.9414c0.011719-0.011719-0.015624-0.011719-0.039062 0z"/>
  <path d="m57.859 68.301 5.1758 2.6758c0.14062 0.074219 0.30859 0.074219 0.44922 0l5.1484-2.6758c0.011719-0.011719 0.023438 0 0.023438 0.011719l0.011719 1.3086c0 0.023437-0.011719 0.039062-0.023438 0.050781l-5.1914 3.2266c-0.125 0.074218-0.27344 0.089843-0.39844 0.011718-1.7617-0.98828-3.4492-2.0898-5.1484-3.1602-0.074219-0.050781-0.125-0.14062-0.125-0.22656l0.023438-1.1992c0.003906-0.019531 0.019531-0.035157 0.054687-0.019531z"/>
  <path d="m58.176 76.148h-0.17578c-0.16016-0.023438-0.16016-0.050782 0-0.089844 1.6406-0.30859 3.3008-0.57422 5-0.76172 0.48828-0.050781 1.1406-0.023437 1.9414 0.10156 1.2891 0.19922 2.4258 0.39062 3.4414 0.58984 0.5 0.10156 0.5 0.14844-0.011718 0.14844-3.4297 0.050781-6.8281 0.050781-10.195 0.011719z"/>
  <path d="m62.09 78.559h2.4258c0.050781 0 0.089844 0.039062 0.089844 0.089844v0.5c0 0.050781-0.039063 0.089843-0.089844 0.089843h-2.4258c-0.050782 0-0.089844-0.039062-0.089844-0.089843v-0.5c0-0.050782 0.039062-0.089844 0.089844-0.089844z"/>
 </g>
</svg>
