<?xml version="1.0" encoding="UTF-8"?>
<svg width="128pt" height="128pt" version="1.1" viewBox="0 0 128 128" xmlns="http://www.w3.org/2000/svg">
 <g fill="#FF0000">
  <path d="m66.988 33.25-2.5273-1.2656 1.4961-4.4922-3.9141-1.3047-2.6328 7.8906 5.7305 2.8633z"/>
  <path d="m64 103.23c8.082 0 15.039-6.0352 16.184-14.035l0.3125-2.1875-4.0859-0.58594-0.3125 2.1875c-0.85547 5.9805-6.0547 10.492-12.098 10.492s-11.242-4.5117-12.094-10.488l-0.3125-2.1875-4.0859 0.58594 0.3125 2.1875c1.1406 7.9961 8.0977 14.031 16.18 14.031z"/>
  <path d="m86.496 95.27c-3.2305 9.6992-12.273 16.215-22.496 16.215s-19.266-6.5156-22.496-16.215l-0.31641-0.95312-3.918 1.3047 0.31641 0.95312c3.7969 11.387 14.41 19.039 26.414 19.039s22.617-7.6523 26.414-19.039l0.31641-0.95312-3.918-1.3047z"/>
  <path d="m123.87 0v80.516h-13.777c-0.24609-0.6875-0.48828-1.375-0.72266-2.0664 4.582-0.007813 8.3047-3.7344 8.3047-8.3203 0-3.2852-1.9414-6.2695-4.9414-7.6055l-8.6719-3.8555c-1.9219-9.7344-2.9023-19.691-2.9023-29.617v-8.4062h-4.1289v8.4062c0 9.2305 0.82031 18.488 2.4414 27.582l-9.1172-4.0547c1.6562-2.4258 2.5469-5.2891 2.5469-8.293 0-2.2812-0.53906-4.5625-1.5586-6.6016-1.6797-3.3594-2.5703-7.125-2.5703-10.887v-2.0234c0-13.66-11.113-24.773-24.773-24.773s-24.773 11.113-24.773 24.773v2.0234c0 3.7617-0.89062 7.5273-2.5703 10.891-1.0195 2.0352-1.5586 4.3164-1.5586 6.6016 0 3.5781 0.97656 7.0469 2.8281 10.09l-4.7422 2.9648-4.207-3.3633c1.3242-8.2227 1.9961-16.602 1.9961-24.93l-0.003906-8.4062h-4.1289v8.4062c0 7.3242-0.53516 14.691-1.5859 21.953l-0.48047-0.38281v-1.0742c0-4.5547-3.7031-8.2578-8.2578-8.2578s-8.2578 3.7031-8.2578 8.2578c0 3.168 1.1602 6.2188 3.2656 8.5859l9.918 11.156c-1.0312 3.7734-2.2148 7.5312-3.5312 11.223l-13.781 0.003906v-80.516h-4.1289v128h128v-128zm-12.387 84.645h12.387v4.1289h-12.387zm-90.84 0.375c1.5938-4.1758 3.0195-8.457 4.2539-12.77 2.1914 1.3359 4.7305 2.0703 7.3516 2.0703 2.1797 0 4.293-0.44922 6.2852-1.332l11.48-5.1016c0.12109 0.67578 0.26172 1.3438 0.42578 2.0078l0.85938 3.4453c-11.074 6.8242-19.629 16.766-24.727 28.453-1.3672-4.1484-3.3672-8.082-5.9336-11.621zm5.5781 32.387c2.8945-17.371 13.281-32.426 28.492-41.297l1.3398-0.78125-1.6094-6.4297c-0.51172-2.0469-0.76953-4.1523-0.76953-6.2617 0-1.6953 0.16797-3.3984 0.5-5.0625l1.168-5.8398c0.22266-0.019531 0.44922-0.042969 0.67578-0.054687 0.94141 3.5195 4.1602 6.125 7.9805 6.125 3.8242 0 7.0508-2.6133 7.9844-6.1484 0.22266 0.011719 0.44141 0.023438 0.66406 0.039062l1.1758 5.8711c0.33203 1.6641 0.5 3.3672 0.5 5.0625 0 2.1094-0.25781 4.2148-0.76953 6.2617l-1.6094 6.4297 1.3398 0.78125c15.211 8.875 25.598 23.926 28.492 41.297l1.0742 6.4727h-77.703zm32.508-73.832c-4.3906-2.1953-7.1172-6.6094-7.1172-11.516v-7.2852c0-4.5547 3.7031-8.2578 8.2578-8.2578h0.19531c0.5 0 0.96484 0.19531 1.3125 0.54688 0.35547 0.35938 0.55469 0.84766 0.55469 1.375v0.26953c0 0.51953-0.20312 1.0078-0.57031 1.3711-0.36719 0.36719-0.85547 0.57031-1.375 0.57031h-0.12109c-0.77734 0-1.5117-0.30469-2.0625-0.85547l-0.60547-0.60547-2.918 2.918 0.60547 0.60547c1.3281 1.3281 3.0977 2.0625 4.9805 2.0625h0.125 0.003906c1.6211 0 3.1445-0.63281 4.293-1.7773 1.1172-1.1172 1.7461-2.5938 1.7773-4.1719l1.1367-0.57031c2.2734-1.1367 4.8242-1.7383 7.3711-1.7383 1 0 1.8125 0.8125 1.8125 1.8125 0 1.2773-1.0391 2.3164-2.3164 2.3164-0.61719 0-1.1992-0.24219-1.6367-0.67969l-0.78125-0.78125-2.918 2.918 0.78125 0.78125c1.2188 1.2227 2.8359 1.8906 4.5547 1.8906 0.81641 0 1.5977-0.15234 2.3164-0.43359v7.7148c0 4.9062-2.7266 9.3203-7.1172 11.516l-1.1406 0.57422v5.4023c0 2.2773-1.8516 4.1289-4.1289 4.1289s-4.1289-1.8516-4.1289-4.1289v-5.4062zm27.449-7.5703c0.41016 1.207 0.90234 2.3867 1.4727 3.5273 0.73438 1.4688 1.1211 3.1133 1.1211 4.7578 0 2.418-0.80469 4.7109-2.2812 6.5781-4.5391-1.9688-9.3164-3.0898-14.234-3.332v-0.89453c3.6289-2.168 6.2578-5.5469 7.4844-9.4805h2.8398c1.3398 0 2.582-0.42969 3.5977-1.1562zm-3.5977-2.9727h-2.0938c0.019531-0.32422 0.027344-0.64844 0.027344-0.97656v-3.1523h2.0664c1.1367 0 2.0664 0.92578 2.0664 2.0664-0.003907 1.1367-0.92969 2.0625-2.0664 2.0625zm-5.8867 40.309 0.85938-3.4453c0.38281-1.5312 0.64062-3.0938 0.77734-4.6641l23.273 6.6484 0.43359 1.3047c0.46875 1.4023 1.3086 2.5977 2.3906 3.4961 0.89062 2.7969 1.8672 5.5977 2.918 8.3398v5.1484c-2.5664 3.543-4.5664 7.4727-5.9336 11.621-5.0898-11.684-13.645-21.625-24.719-28.449zm36.852-3.2109c0 2.3125-1.8789 4.1914-4.1914 4.1914-1.543 0-2.9062-0.98437-3.3945-2.4453l-1.125-3.3711-26.438-7.5547c-0.078126-1.4102-0.25781-2.8125-0.53125-4.1953l-0.90625-4.5234c2.8047 0.52344 5.5469 1.375 8.1953 2.5547l25.898 11.512c1.5156 0.67578 2.4922 2.1797 2.4922 3.832zm-49.547-66c11.383 0 20.645 9.2617 20.645 20.645v0.35547c-0.64453-0.23047-1.3398-0.35547-2.0664-0.35547h-2.0664l0.003906-6.4453c0-3.2734-2.6641-5.9414-5.9414-5.9414-3.1836 0-6.3711 0.75391-9.2188 2.1758l-0.48828 0.24219c-0.16797-0.22656-0.34766-0.44531-0.55078-0.65234-1.1289-1.1406-2.6406-1.7695-4.2461-1.7695h-0.19531c-6.8359 0.003907-12.391 5.5625-12.391 12.391h-2.0664c-0.72266 0-1.418 0.125-2.0664 0.35547l0.003907-0.35547c0-11.383 9.2617-20.645 20.645-20.645zm-18.582 24.773h2.0664v3.1562c0 0.32812 0.011719 0.65234 0.027344 0.97656l-2.0938-0.003906c-1.1367 0-2.0664-0.92578-2.0664-2.0664 0.003907-1.1367 0.92969-2.0625 2.0664-2.0625zm-6.1914 15.383c0-1.6406 0.38672-3.2812 1.1211-4.75 0.57031-1.1406 1.0625-2.3242 1.4727-3.5312 1.0156 0.72656 2.2578 1.1562 3.5977 1.1562h2.8398c1.2266 3.9336 3.8555 7.3125 7.4844 9.4805v0.91016c-5.0625 0.33984-9.9648 1.918-14.289 4.6211l-0.027344 0.015625c-1.4414-2.3828-2.1992-5.1016-2.1992-7.9023zm-26.84 5.2617c0-2.2773 1.8516-4.1289 4.1289-4.1289s4.1289 1.8516 4.1289 4.1289v3.0586l12.242 9.793 10.754-6.7227c2.2891-1.4297 4.7617-2.4922 7.3398-3.1758l-0.85156 4.2578c-0.38672 1.9297-0.58203 3.9062-0.58203 5.875 0 0.3125 0.003906 0.625 0.015625 0.9375l-12.703 5.6484c-1.4609 0.64844-3.0078 0.97656-4.6055 0.97656-2.8516 0-5.5703-1.2227-7.4648-3.3516l-10.176-11.449c-1.4375-1.6133-2.2266-3.6914-2.2266-5.8477zm4.1289 35.098v4.1289h-12.387v-4.1289zm-12.387 8.2578h13.398c3.3203 4.6836 5.5586 10.105 6.5117 15.77-0.79687 2.6211-1.4336 5.3086-1.8906 8.0547l-1.1875 7.1445h-16.832zm102.91 30.969-1.1914-7.1445c-0.45703-2.7422-1.0898-5.4336-1.8906-8.0547 0.95312-5.6641 3.1914-11.086 6.5117-15.77h13.402v30.969z"/>
  <path d="m105.29 16.516h2.0664v12.387h4.1289v-18.578c0-3.4141-2.7773-6.1953-6.1953-6.1953-3.4141 0-6.1953 2.7773-6.1953 6.1953 0.003906 3.4141 2.7812 6.1914 6.1953 6.1914zm0-8.2578c1.1367 0 2.0664 0.92578 2.0664 2.0664v2.0664h-2.0664c-1.1367 0-2.0664-0.92578-2.0664-2.0664 0.003906-1.1406 0.92969-2.0664 2.0664-2.0664z"/>
  <path d="m14.453 28.902c3.4141 0 6.1953-2.7773 6.1953-6.1953l-0.003907-10.801 6.8125 4.0859c0.57031 0.34375 1.2266 0.52344 1.8945 0.52344 2.0312 0 3.6797-1.6523 3.6797-3.6797v-3.6641c0-1.2852-0.68359-2.4961-1.7891-3.1562l-9.1523-5.4922c-0.57031-0.34375-1.2266-0.52344-1.8906-0.52344-2.0312 0-3.6836 1.6523-3.6836 3.6797v12.836h-2.0664c-3.4141 0-6.1953 2.7773-6.1953 6.1953 0.003906 3.4141 2.7812 6.1914 6.1992 6.1914zm6.1914-24.43 8.2578 4.957v2.6172l-8.2578-4.9531zm-6.1914 16.172h2.0664v2.0664c0 1.1367-0.92578 2.0664-2.0664 2.0664-1.1367 0-2.0664-0.92578-2.0664-2.0664 0-1.1406 0.92578-2.0664 2.0664-2.0664z"/>
 </g>
</svg>
