<?xml version="1.0" encoding="UTF-8"?>
<svg width="128pt" height="128pt" version="1.1" viewBox="0 0 128 128" xmlns="http://www.w3.org/2000/svg">
 <g stroke="#FF0000">
  <path transform="scale(1.28)" d="m57.001 10.001c0 3.8666-3.1342 7.0007-7.0007 7.0007s-7.0007-3.1342-7.0007-7.0007c0-3.8666 3.1342-7.0007 7.0007-7.0007s7.0007 3.1342 7.0007 7.0007" fill="#FF0000" fill-rule="evenodd"/>
  <path transform="scale(1.28)" d="m70.001 1.001s-0.177-0.20447 14.999 16" fill="none" stroke-linecap="square"/>
  <path transform="scale(1.28)" d="m88 17.999c0 4.0009-5.9998 4.0009-5.9998 0 0-3.9978 5.9998-3.9978 5.9998 0" fill="#FF0000" fill-rule="evenodd"/>
  <path transform="scale(1.28)" d="m20.999 14.001c0 3.9978-5.9998 3.9978-5.9998 0 0-4.0009 5.9998-4.0009 5.9998 0" fill="#FF0000" fill-rule="evenodd"/>
  <path transform="scale(1.28)" d="m56.897 22.745s10.687 0.93994 11.459 1.4313c0.77515 0.49438 1.0864 2.2217 1.9958 3.2806s2.2552 1.6663 2.2552 1.6663 1.9501 0.58899 3.4851 0.23498 2.3224-1.001 2.8595-1.6998c0.53711-0.7019 1.7944-4.5624 1.7944-4.5624s-0.042725-1.8677 2.7771-0.36926c2.8198 1.4954 2.8625 1.944 2.8625 1.944s-0.39978 1.9165-0.39978 3.363c0 1.2939-0.1831 2.6947-0.73852 4.0039-0.38452 0.90942-1.3794 2.1637-1.7242 2.4322 0 0-1.1993 0.98877-2.1362 1.358-0.14343 0.091552-2.9999 1.0925-2.9999 1.0925l-3.833 0.98267-6.2561 0.83618-2.4292 16.26 0.27161 28.006s0.57373 4.3335-3.4882 8.0414c-4.0588 3.7079-9.8572 3.7201-9.8572 3.7201l-3.5126-27.405-1.3184 29.639s-10.129-5.304-12.589-7.9742c-2.4597-2.6703-2.1637-7.8308-2.1637-7.8308l0.96741-27.335-5.188-16.681s-2.6123-0.32043-5.6915-1.0834c-3.0762-0.76294-5.5939-1.6266-5.5939-1.6266s-1.7578-0.79956-2.2034-1.178c-0.55847-0.46997-1.4404-1.3367-1.7639-2.6154-0.32044-1.2787-0.35095-8.905-0.35095-8.905s0.62561-1.7944 2.5269-2.475c1.9043-0.68054 4.3121 0.027465 4.3121 0.027465l0.033569 3.064s0 2.9938 0.61951 3.7384c0 0 0.68054 0.71716 0.68054 0.68054 0.13733 0.009155-0.98572-0.2655 0.41504 0.027465 1.3977 0.29297 3.0487 0.21668 3.0487 0.21668s1.6449 0.024414 2.1515-0.20752c0.77515-0.35706 3.0029-2.6215 3.0029-2.6215l1.4313-1.4954s0.22583-0.22278 1.1108-0.33874c0.88806-0.11597 1.4587 0 1.4587 0h2.8381l3.2227 0.33874s1.0254-1.2268 3.5553-2.0569c2.5299-0.83008 3.537-1.2634 5.4871-1.3458 1.9531-0.085449 2.121-0.10986 4.1992 0.67139 2.0782 0.7843 3.4149 2.7496 3.4149 2.7496z" fill="#FF0000" fill-rule="evenodd"/>
 </g>
</svg>
