<?xml version="1.0" encoding="UTF-8"?>
<svg width="128pt" height="128pt" version="1.1" viewBox="0 0 128 128" xmlns="http://www.w3.org/2000/svg">
 <path d="m119.68 47.105-20.352-31.105 4.2227-3.5859c0.89844-0.63672 0.38672-2.1758-0.76562-2.1758h-22.527l-42.113 24.195 40.449-1.0234-0.25781 1.1523-45.695 1.2773-3.5859 10.625h-1.1523l2.5586-7.5508-13.055 7.1641h-4.6055v9.0898l70.398 2.4336v2.4336l-54.527-2.5586-23.551-0.90234v10.754l2.5586 0.25781v34.047l2.9453 1.0234 2.1758-0.64062v-34.047l34.559 2.9453v26.367l-2.4336-0.25781-5.2461 1.793v1.2812l2.9453 0.64062-3.0703 1.4062 2.3047 0.64062 3.1992-1.5352 1.6641 0.38281-3.5859 1.9219 2.6875 0.89453 3.5859-2.1758 2.0469 0.51172-3.7109 2.3047 3.1992 1.0234 3.7109-2.6875 2.9453 0.64062 5.1211-3.1992v-1.5352l-3.8398-0.51172-0.003906-26.883 14.078 1.2812v26.367l2.8164 0.76953 2.3047-0.64062v-26.113l12.801 1.0234v-15.105h1.2812v14.98l1.2812-0.12891v41.984l3.457 0.89453 2.9453-0.64062-0.003906-42.371 24.32-1.2812v-25.727zm-64.641 51.07-3.8398-0.51172v-26.496l3.8398 0.38281zm26.113-34.945-70.914-3.3281v-1.2812l70.91 3.3281zm18.434-17.152h-2.3047v12.801h-1.2812v-12.801h-20.48l1.1523-4.9922 7.2969-7.6797c0.51172-0.51172 0.89453-1.2812 1.0234-1.9219l0.25781-2.0469c0.12891-1.1523 0.76953-2.0469 1.5352-2.8164l11.266-9.4727 18.43 29.699z" fill="#FF0000"/>
</svg>
