<?xml version="1.0" encoding="UTF-8"?>
<svg width="128pt" height="128pt" version="1.1" viewBox="0 0 128 128" xmlns="http://www.w3.org/2000/svg">
 <path d="m115.9 48.98c0.32422 0 0.58203-0.25391 0.58203-0.58203v-2.332c0-0.32812-0.25781-0.58203-0.58203-0.58203h-0.58203l-0.003906-2.332h-5.8242v-34.559c0-1.2031-0.97656-2.1797-2.1797-2.1797h-4.9688c-1.2031 0-2.1797 0.97656-2.1797 2.1797v1.582c-0.30469-0.16016-0.64453-0.26172-1.0117-0.26172h-4.9727c-1.2031 0-2.1797 0.97656-2.1797 2.1797v1.582c-0.30469-0.16016-0.64453-0.26172-1.0117-0.26172h-4.9727c-1.2031 0-2.1797 0.97656-2.1797 2.1797v1.582c-0.30469-0.16016-0.64453-0.26172-1.0117-0.26172h-4.9727c-1.2031 0-2.1797 0.97656-2.1797 2.1797v1.582c-0.30469-0.16016-0.64453-0.26172-1.0117-0.26172h-4.9727c-1.2031 0-2.1797 0.97656-2.1797 2.1797v1.5898c-0.30859-0.16406-0.65234-0.26953-1.0273-0.26953h-4.9727c-0.36719 0-0.70703 0.10156-1.0117 0.26172v-1.582c0-1.2031-0.97656-2.1797-2.1797-2.1797h-4.9727c-0.36719 0-0.70703 0.10156-1.0117 0.26172v-1.582c0-1.2031-0.97656-2.1797-2.1797-2.1797h-4.9727c-0.36719 0-0.70703 0.10156-1.0117 0.26172v-1.582c0-1.2031-0.97656-2.1797-2.1797-2.1797h-4.9727c-0.36719 0-0.70703 0.10156-1.0117 0.26172l0.003906-1.582c0-1.2031-0.97656-2.1797-2.1797-2.1797h-4.9727c-0.36719 0-0.70703 0.10156-1.0117 0.26172v-1.582c0-1.2031-0.97656-2.1797-2.1797-2.1797h-4.9727c-1.2031 0-2.1797 0.97656-2.1797 2.1797l0.003907 34.559h-5.8242v2.332h-0.58203c-0.32812 0-0.58594 0.25391-0.58594 0.58203v2.332c0 0.32812 0.25781 0.58203 0.58203 0.58203h0.58203v4.6641h-0.58203c-0.32422 0.003907-0.58203 0.25781-0.58203 0.58594v2.332c0 0.32812 0.25781 0.58203 0.58203 0.58203h0.58203v50.148h13.996l18.18-10.496h38.273l18.18 10.496h13.996l0.003906-50.148h0.58203c0.32812 0 0.58594-0.25391 0.58594-0.58203v-2.332c0-0.32812-0.25781-0.58203-0.58203-0.58203h-0.58203v-4.6641zm-0.58594-1.1641h-13.992v-1.168h13.996zm-13.992 3.5h-74.641v-2.332h0.58203c0.32812 0 0.58203-0.25781 0.58203-0.58203v-2.332c0-0.32812-0.25781-0.58203-0.58203-0.58203h-0.58203v-1.168h74.652v1.168h-0.58203c-0.32812 0-0.58203 0.25781-0.58203 0.58203v2.332c0 0.32812 0.25781 0.58203 0.58203 0.58203h0.58203zm0 10.496h-74.641v-4.6641h74.637zm-74.641 5.8281h74.637v19.824l-74.637 0.003906zm0-1.1641v-2.332h74.637v2.332zm73.473-12.246v1.75h-72.305v-1.75c0-0.32812-0.25781-0.58203-0.58203-0.58203h73.473c-0.32812 0-0.58594 0.25391-0.58594 0.58203zm-67.059-11.078h-3.5v-1.4922c0-0.14062 0.11719-0.25781 0.25781-0.25781h2.9844c0.14062 0 0.25781 0.11719 0.25781 0.25781zm65.309 0h-3.5v-1.4922c0-0.14062 0.11719-0.25781 0.25781-0.25781h2.9844c0.14062 0 0.25781 0.11719 0.25781 0.25781zm15.746 1.1641v1.168h-11.664v-1.168zm-12.824-35.723c0-0.55859 0.45312-1.0117 1.0117-1.0117h4.9727c0.55859 0 1.0117 0.45312 1.0117 1.0117v1.5508c-0.011718-0.76953-0.64453-1.3984-1.4297-1.3984h-4.1367c-0.79297 0-1.4219 0.64062-1.4219 1.4219v4.1523c0 0.78125 0.62891 1.4219 1.4219 1.4219h4.1406c0.78516 0 1.4141-0.62891 1.4297-1.3984v28.809h-7zm5.8359 1.5781v4.1523c0 0.14062-0.11719 0.25781-0.26953 0.25781l-4.1367-0.003906c-0.14062 0-0.25781-0.11719-0.25781-0.25781v-4.1484c0-0.14062 0.11719-0.25781 0.25781-0.25781h4.1406c0.15234 0 0.26562 0.11719 0.26562 0.25781zm-13.996 1.9219c0-0.55859 0.45313-1.0117 1.0117-1.0117h4.9727c0.55859 0 1.0117 0.45312 1.0117 1.0117v1.5508c-0.011718-0.76953-0.64453-1.3984-1.4297-1.3984h-4.1406c-0.79297 0-1.4219 0.64062-1.4219 1.4219v4.1523c0 0.78125 0.62891 1.4219 1.4219 1.4219h4.1406c0.78516 0 1.4141-0.62891 1.4297-1.3984v25.309h-0.58984v-1.4922c0-0.78125-0.64062-1.4219-1.4219-1.4219h-2.9844c-0.78125 0-1.4219 0.64062-1.4219 1.4219v1.4922h-0.57813zm5.8359 1.5742v4.1523c0 0.14063-0.11719 0.25781-0.26953 0.25781h-4.1406c-0.14062 0-0.25781-0.11719-0.25781-0.25781v-4.1523c0-0.14062 0.11719-0.25781 0.25781-0.25781h4.1406c0.15234 0.003906 0.26953 0.11719 0.26953 0.25781zm-14 1.9219c0-0.55859 0.45312-1.0117 1.0117-1.0117h4.9727c0.55859 0 1.0117 0.45312 1.0117 1.0117v1.5508c-0.011719-0.76953-0.64453-1.3984-1.4297-1.3984h-4.1406c-0.79297 0-1.4219 0.64062-1.4219 1.4219v4.1523c0 0.78125 0.62891 1.4219 1.4219 1.4219h4.1406c0.78516 0 1.4141-0.62891 1.4297-1.3984v21.812h-6.9961zm5.8359 1.5781v4.1523c0 0.14063-0.11719 0.25781-0.26953 0.25781h-4.1406c-0.14062 0-0.25781-0.11719-0.25781-0.25781v-4.1523c0-0.14062 0.11719-0.25781 0.25781-0.25781h4.1406c0.15234 0 0.26953 0.11719 0.26953 0.25781zm-14 1.9219c0-0.55859 0.45312-1.0117 1.0117-1.0117h4.9727c0.55859 0 1.0117 0.45312 1.0117 1.0117v1.5508c-0.011719-0.76953-0.64453-1.3984-1.4297-1.3984h-4.1406c-0.79297 0-1.4219 0.64062-1.4219 1.4219v4.1523c0 0.78125 0.62891 1.4219 1.4219 1.4219h4.1406c0.78516 0 1.4141-0.62891 1.4297-1.3984v18.312h-6.9961zm5.8359 1.5781v4.1523c0 0.14063-0.11719 0.25781-0.26953 0.25781h-4.1406c-0.14062 0-0.25781-0.11719-0.25781-0.25781v-4.1523c0-0.14062 0.11719-0.25781 0.25781-0.25781h4.1406c0.15234 0 0.26953 0.11719 0.26953 0.25781zm-12.988 0.90625h4.9727c0.55859 0 1.0117 0.45312 1.0117 1.0117v1.5508c-0.011719-0.76953-0.64453-1.3984-1.4297-1.3984h-4.1406c-0.79297 0-1.4219 0.64062-1.4219 1.4219v4.1523c0 0.78125 0.62891 1.4219 1.4219 1.4219h4.1406c0.78516 0 1.4141-0.62891 1.4297-1.3984v14.816h-6.9961v-20.562c0-0.55859 0.45312-1.0156 1.0117-1.0156zm4.8242 2.5898v4.1523c0 0.14062-0.11719 0.25781-0.26953 0.25781h-4.1406c-0.14062 0-0.25781-0.11719-0.25781-0.25781v-4.1523c0-0.14062 0.11719-0.25781 0.25781-0.25781h4.1406c0.15234 0.003906 0.26953 0.11719 0.26953 0.25781zm-13 0.91016h4.9727c0.55859 0 1.0117 0.45312 1.0117 1.0117v17.066h-6.9961v-11.309c0.015625 0.76953 0.64453 1.3945 1.4297 1.3945h4.1406c0.79297 0 1.4219-0.64062 1.4219-1.4219v-4.1523c0-0.78125-0.62891-1.4219-1.4219-1.4219h-4.1406c-0.78516 0-1.4141 0.62891-1.4297 1.3945v-1.5508c0-0.55859 0.45312-1.0117 1.0117-1.0117zm0.14844 6.7422v-4.1523c0-0.14062 0.11719-0.25781 0.26953-0.25781h4.1406c0.14062 0 0.25781 0.11719 0.25781 0.25781v4.1523c0 0.14062-0.11719 0.25781-0.25781 0.25781h-4.1406c-0.15234-0.003907-0.26953-0.11719-0.26953-0.25781zm-8.3125-10.242h4.9727c0.55859 0 1.0117 0.45312 1.0117 1.0117v20.566h-6.9961v-14.809c0.015625 0.76953 0.64453 1.3945 1.4297 1.3945h4.1406c0.79297 0 1.4219-0.64062 1.4219-1.4219v-4.1523c0-0.78125-0.62891-1.4219-1.4219-1.4219h-4.1406c-0.78516 0-1.4141 0.62891-1.4297 1.3945v-1.5508c0-0.55469 0.45312-1.0117 1.0117-1.0117zm0.14844 6.7422v-4.1523c0-0.14062 0.11719-0.25781 0.26953-0.25781h4.1406c0.14062 0 0.25781 0.11719 0.25781 0.25781v4.1523c0 0.14062-0.11719 0.25781-0.25781 0.25781h-4.1406c-0.15234 0-0.26953-0.11719-0.26953-0.25781zm-8.3125-10.238h4.9727c0.55859 0 1.0117 0.45312 1.0117 1.0117v24.062h-6.9961v-18.309c0.015625 0.76953 0.64453 1.3945 1.4297 1.3945h4.1406c0.79297 0 1.4219-0.64062 1.4219-1.4219v-4.1523c0-0.78125-0.62891-1.4219-1.4219-1.4219h-4.1406c-0.78516 0-1.4141 0.62891-1.4297 1.3945v-1.5508c0-0.55469 0.45312-1.0078 1.0117-1.0078zm0.14844 6.7383v-4.1523c0-0.14062 0.11719-0.25781 0.26953-0.25781h4.1406c0.14062 0 0.25781 0.11719 0.25781 0.25781v4.1523c0 0.14062-0.11719 0.25781-0.25781 0.25781h-4.1406c-0.15234 0-0.26953-0.11719-0.26953-0.25781zm-8.3125-10.238h4.9727c0.55859 0 1.0117 0.45312 1.0117 1.0117v27.562h-6.9961v-21.805c0.015625 0.76953 0.64453 1.3945 1.4297 1.3945h4.1406c0.79297 0 1.4219-0.64063 1.4219-1.4219v-4.1523c0-0.78125-0.62891-1.4219-1.4219-1.4219h-4.1406c-0.78516 0-1.4141 0.62891-1.4297 1.3945v-1.5508c0-0.55859 0.45312-1.0117 1.0117-1.0117zm0.14844 6.7422v-4.1523c0-0.14062 0.11719-0.25781 0.26953-0.25781h4.1406c0.14062 0 0.25781 0.11719 0.25781 0.25781v4.1523c0 0.14063-0.11719 0.25781-0.25781 0.25781h-4.1406c-0.15234-0.003906-0.26953-0.11719-0.26953-0.25781zm-8.3125-10.242h4.9727c0.55859 0 1.0117 0.45312 1.0117 1.0117v3.5l0.003906 27.562h-0.57812v-1.4922c0-0.78125-0.64062-1.4219-1.4219-1.4219h-2.9844c-0.78125 0-1.4219 0.64062-1.4219 1.4219v1.4922h-0.58984l-0.003906-25.305c0.015625 0.76953 0.64453 1.3945 1.4297 1.3945h4.1406c0.79297 0 1.4219-0.64063 1.4219-1.4219v-4.1523c0-0.78125-0.62891-1.4219-1.4219-1.4219h-4.1406c-0.78516 0-1.4141 0.62891-1.4297 1.3945v-1.5469c0-0.55859 0.45703-1.0156 1.0117-1.0156zm0.14844 6.7422v-4.1523c0-0.14062 0.11719-0.25781 0.26953-0.25781h4.1406c0.14062 0 0.25781 0.11719 0.25781 0.25781v4.1523c0 0.14063-0.11719 0.25781-0.25781 0.25781h-4.1406c-0.15234 0-0.26953-0.11719-0.26953-0.25781zm-9.3242-3.4727c0.015625 0.76953 0.64453 1.3945 1.4297 1.3945h4.1406c0.79297 0 1.4219-0.64063 1.4219-1.4219v-4.1484c0-0.78125-0.62891-1.4219-1.4219-1.4219h-4.1406c-0.78516 0-1.4141 0.62891-1.4297 1.3945v-1.5508c0-0.55859 0.45312-1.0117 1.0117-1.0117h4.9727c0.55859 0 1.0117 0.45312 1.0117 1.0117v3.5l0.003906 31.059h-6.9961zm1.1641-0.027344v-4.1484c0-0.14062 0.11719-0.25781 0.26953-0.25781h4.1406c0.14062 0 0.25781 0.11719 0.25781 0.25781v4.1523c0 0.14062-0.11719 0.25781-0.25781 0.25781h-4.1406c-0.15625-0.003906-0.26953-0.12109-0.26953-0.26172zm-6.9883 29.996h11.664v1.168h-11.664zm-1.1641 2.332h13.996v1.168h-13.996zm1.1641 2.332h11.664v4.6641h-11.664zm-1.1641 5.832h13.996v1.168h-13.996zm12.828 51.316h-11.664v-48.984h11.664zm59.953-9.332-2.0273-1.168-0.78125 0.003906h-38.102l-2.0273 1.168-15.848 9.1445-0.003906-17.312h74.637v17.309zm28.68 9.332h-11.664v-48.984h11.664zm1.1641-50.148h-13.996v-1.168h13.996zm-1.1641-2.332h-11.664v-4.6641h11.664zm-88.051-12.504v-4.1523c0-0.78125-0.64062-1.4219-1.4219-1.4219h-2.9844c-0.78125 0-1.4219 0.64063-1.4219 1.4219v4.1523c0 0.78125 0.64062 1.4219 1.4219 1.4219h2.9844c0.78125 0 1.4219-0.64062 1.4219-1.4219zm-1.168 0c0 0.14062-0.11719 0.25781-0.25781 0.25781h-2.9844c-0.14062 0-0.25781-0.11719-0.25781-0.25781v-4.1523c0-0.14063 0.11719-0.25781 0.25781-0.25781h2.9844c0.14062 0 0.25781 0.11719 0.25781 0.25781zm78.395 1.4219h2.9844c0.78125 0 1.4219-0.64062 1.4219-1.4219v-4.1523c0-0.78125-0.64062-1.4219-1.4219-1.4219h-2.9844c-0.78125 0-1.4219 0.64063-1.4219 1.4219v4.1523c0 0.78125 0.64062 1.4219 1.4219 1.4219zm-0.25391-5.5742c0-0.14063 0.11719-0.25781 0.25781-0.25781h2.9844c0.14062 0 0.25781 0.11719 0.25781 0.25781v4.1523c0 0.14062-0.11719 0.25781-0.25781 0.25781h-2.9883c-0.14062 0-0.25781-0.11719-0.25781-0.25781zm-4.0117 34.66v-0.51172h-3.2852v0.51172h-1.0938v-0.51172h-3.2852v0.51172h-2.1914v-0.51172h-3.2852v0.51172h-1.0938v-0.51172h-3.2852v0.51172h-1.0938v-0.51172h-3.2852v0.51172h-2.1914v-0.51172h-3.2852v0.51172h-1.0938v-0.51172h-3.2852v0.51172h-2.1914v-0.51172h-3.2852v0.51172h-1.0938v-0.51172h-3.2852v0.51172h-1.0938v-0.51172h-3.2852v0.51172h-2.1914v-0.51172h-3.2852v0.51172h-1.0938v-0.51172h-3.2852v0.51172h-2.1914v-0.51172h-3.2852v0.51172h-1.0938v-0.51172h-3.2852v0.51172h-1.0938v-0.51172h-3.2852v0.51172h-1.6797v4.4531h73.473l-0.039063-4.4531zm-18.625 1.6797v-0.51172h1.0938v0.51172h3.2852l0.003906-0.51172h1.0938v0.51172h3.2852l0.003907-0.51172h0.51172v2.1211h-13.078v-2.1211h0.51172v0.51172zm-9.8594 0v-0.51172h1.0938v0.51172h3.2852l0.003906-0.51172h0.51172v2.1211h-8.6914l-0.003906-2.1211h0.51172v0.51172zm-14.242 0v-0.51172h1.0938v0.51172h3.2852l0.003906-0.51172h1.0938v0.51172h3.2852v-0.51172h0.51172v2.1211h-13.074v-2.1211h0.51172v0.51172zm-9.8594 0v-0.51172h1.0938v0.51172h3.2852l0.003907-0.51172h0.51172v2.1211h-8.6953v-2.1211h0.51172v0.51172zm-18.043-0.51172h0.51172v0.51172h3.2852l0.003907-0.51172h1.0938v0.51172h3.2852l0.003906-0.51172h1.0938v0.51172h3.2852v-0.51172h0.51172v2.1211h-13.074zm71.141 2.1211h-8.6914l-0.003906-2.1211h0.51172v0.51172h3.2852l0.003906-0.51172h1.0938v0.51172h3.2852l0.003906-0.51172h0.51172zm-0.51172 3.4805h-3.2852v0.51172h-1.0938v-0.51172h-3.2852v0.51172h-2.1914v-0.51172h-3.2852v0.51172h-1.0938v-0.51172h-3.2852v0.51172h-1.0938v-0.51172h-3.2852v0.51172h-2.1914v-0.51172h-3.2852v0.51172h-1.0938v-0.51172h-3.2852v0.51172h-2.1914v-0.51172h-3.2852v0.51172h-1.0938v-0.51172h-3.2852v0.51172h-1.0938v-0.51172h-3.2852v0.51172h-2.1914v-0.51172h-3.2852v0.51172h-1.0938v-0.51172h-3.2852v0.51172h-2.1914v-0.51172h-3.2852v0.51172h-1.0938v-0.51172h-3.2852v0.51172h-1.0938v-0.51172h-3.2852v0.51172h-1.6797v4.4531h73.473v-4.4531h-1.6797zm-18.625 2.1914v-0.51562h1.0938v0.51562h3.2852v-0.51562h1.0938v0.51562h3.2852v-0.51562h0.51172v2.1211h-13.07v-2.1211h0.51172v0.51562zm-9.8594 0v-0.51562h1.0938v0.51562h3.2852v-0.51562h0.51172v2.1211h-8.6914v-2.1211h0.51172v0.51562zm-14.242 0v-0.51562h1.0938v0.51562h3.2852v-0.51562h1.0938v0.51562h3.2852v-0.51562h0.51172v2.1211h-13.074v-2.1211h0.51172v0.51562zm-9.8594 0v-0.51562h1.0938v0.51562h3.2852v-0.51562h0.51172v2.1211h-8.6953v-2.1211h0.51172v0.51562zm-18.043-0.51562h0.51172v0.51562h3.2852v-0.51562h1.0938v0.51562h3.2852v-0.51562h1.0938v0.51562h3.2852v-0.51562h0.51172v2.1211h-13.066zm71.141 0v2.1211h-8.6914v-2.1211h0.51172v0.51562h3.2852v-0.51562h1.0938v0.51562h3.2852v-0.51562zm-24.473 18.949h-22.195c-0.62891 0-1.1367 0.50781-1.1367 1.1367v21.402h6.4375v-13.523h11.59v13.523h6.4375l0.003906-13.523v-7.8789c0-0.62891-0.50781-1.1367-1.1367-1.1367zm-18.18 21.289h-3.8633v-12.273h3.8633zm18.027 0h-3.8633v-12.273h3.8633z" fill="#FF0000"/>
</svg>
