<svg id="filled_outline" height="512" viewBox="0 0 512 512" width="512" xmlns="http://www.w3.org/2000/svg" data-name="filled outline">
	<path d="m256 57h48v32h-48z" fill="#ecab2c"/>
	<path d="m472 256h-432a210.6 210.6 0 0 1 199.789-144h32.422a210.6 210.6 0 0 1 199.789 144z" fill="#57a865"/>
	<path d="m24 288h464v176h-464z" fill="#d78e0c"/>
	<path d="m24 384h464v80h-464z" fill="#ecab2c"/>
	<path d="m184 384h144v80h-144z" fill="#b97a0a"/>
	<path d="m192 384h128v80h-128z" fill="#ecab2c"/>
	<path d="m288 464h-64v-48a32 32 0 0 1 32-32 32 32 0 0 1 32 32z" fill="#57a865"/>
	<path d="m264 385.01v78.99h-16v-78.99a32.188 32.188 0 0 1 16 0z" fill="#57a865"/>
	<path d="m136 416a16 16 0 0 1 16 16v32a0 0 0 0 1 0 0h-32a0 0 0 0 1 0 0v-32a16 16 0 0 1 16-16z" fill="#b97a0a"/>
	<path d="m72 416a16 16 0 0 1 16 16v32a0 0 0 0 1 0 0h-32a0 0 0 0 1 0 0v-32a16 16 0 0 1 16-16z" fill="#b97a0a"/>
	<path d="m440 416a16 16 0 0 1 16 16v32a0 0 0 0 1 0 0h-32a0 0 0 0 1 0 0v-32a16 16 0 0 1 16-16z" fill="#b97a0a"/>
	<path d="m376 416a16 16 0 0 1 16 16v32a0 0 0 0 1 0 0h-32a0 0 0 0 1 0 0v-32a16 16 0 0 1 16-16z" fill="#b97a0a"/>
	<path d="m184 352h144v32h-144z" fill="#d6d5d0"/>
	<path d="m184 376h144v8h-144z" fill="#aeadaa"/>
	<path d="m216 320h80v32h-80z" fill="#57a865"/>
	<path d="m216 344.288h80v7.712h-80z" fill="#4e965a"/>
	<g fill="#b97a0a">
		<path d="m56 320h32v32h-32z"/>
		<path d="m120 320h32v32h-32z"/>
		<path d="m360 320h32v32h-32z"/>
		<path d="m424 320h32v32h-32z"/>
		<path d="m24 256h464v32h-464z"/>
	</g>
	<path d="m256 112h5.818l-5.818-8-5.818 8z" fill="none"/>
	<path d="m472 256a210.61 210.61 0 0 0 -173.369-142.335l24.51 22.281a339.509 339.509 0 0 1 81.872 113.334l2.987 6.72z" fill="#4e965a"/>
	<path d="m281.2 138.648-19.382-26.648h-5.818v144h80a339.526 339.526 0 0 0 -54.8-117.352z" fill="#4e965a"/>
	<path d="m230.8 138.648 19.382-26.648h-10.393a211.092 211.092 0 0 0 -26.42 1.665l-24.51 22.281a339.509 339.509 0 0 0 -81.872 113.334l-2.987 6.72h72a339.526 339.526 0 0 1 54.8-117.352z" fill="#4e965a"/>
	<path d="m56 355h32a8 8 0 0 0 8-8v-32a8 8 0 0 0 -8-8h-32a8 8 0 0 0 -8 8v32a8 8 0 0 0 8 8zm8-32h16v16h-16z"/>
	<path d="m120 355h32a8 8 0 0 0 8-8v-32a8 8 0 0 0 -8-8h-32a8 8 0 0 0 -8 8v32a8 8 0 0 0 8 8zm8-32h16v16h-16z"/>
	<path d="m360 355h32a8 8 0 0 0 8-8v-32a8 8 0 0 0 -8-8h-32a8 8 0 0 0 -8 8v32a8 8 0 0 0 8 8zm8-32h16v16h-16z"/>
	<path d="m424 355h32a8 8 0 0 0 8-8v-32a8 8 0 0 0 -8-8h-32a8 8 0 0 0 -8 8v32a8 8 0 0 0 8 8zm8-32h16v16h-16z"/>
	<path d="m488 243h-10.324a218.3 218.3 0 0 0 -205.465-144h-8.211v-11h40a8 8 0 0 0 8-8v-32a8 8 0 0 0 -8-8h-48a8 8 0 0 0 -8 8v51h-8.211a218.3 218.3 0 0 0 -205.465 144h-10.324a8 8 0 0 0 -8 8v208a8 8 0 0 0 8 8h464a8 8 0 0 0 8-8v-208a8 8 0 0 0 -8-8zm-224-187h32v16h-32zm196.578 187h-47.378l-.875-1.969a345.414 345.414 0 0 0 -83.8-116.005l-3.312-3.011a202.3 202.3 0 0 1 135.365 120.985zm-165.452-126.71 22.633 20.576a329.37 329.37 0 0 1 77.891 106.134h-53.461a345.821 345.821 0 0 0 -54.521-114.057l-10.083-13.864q8.852.233 17.541 1.211zm-31.126 7.31 10.729 14.753a329.825 329.825 0 0 1 50.842 104.647h-61.571zm-16 0v119.4h-61.571a329.825 329.825 0 0 1 50.842-104.646zm-31.126-7.311q8.682-.981 17.541-1.211l-10.083 13.864a345.821 345.821 0 0 0 -54.521 114.058h-53.461a329.37 329.37 0 0 1 77.891-106.134zm-30.084 5.725-3.312 3.011a345.414 345.414 0 0 0 -83.8 116.005l-.878 1.97h-47.378a202.3 202.3 0 0 1 135.368-120.985zm-106.79 328.986h-16v-24a8 8 0 0 1 16 0zm64 0h-16v-24a8 8 0 0 1 16 0zm40 0h-24v-24a24 24 0 0 0 -48 0v24h-16v-24a24 24 0 0 0 -48 0v24h-16v-64h152zm32-40v40h-16v-64h24.022a39.788 39.788 0 0 0 -8.022 24zm32 40h-16v-40a24.039 24.039 0 0 1 16-22.624zm32 0h-16v-62.624a24.039 24.039 0 0 1 16 22.624zm32 0h-16v-40a39.788 39.788 0 0 0 -8.022-24h24.022zm8-80h-128v-16h128zm-96-32v-16h64v16zm160 112h-16v-24a8 8 0 0 1 16 0zm64 0h-16v-24a8 8 0 0 1 16 0zm32 0h-16v-24a24 24 0 0 0 -48 0v24h-16v-24a24 24 0 0 0 -48 0v24h-24v-64h152zm0-80h-144v-24a8 8 0 0 0 -8-8h-24v-24a8 8 0 0 0 -8-8h-80a8 8 0 0 0 -8 8v24h-24a8 8 0 0 0 -8 8v24h-144v-80h448zm0-96h-448v-16h448z"/>
</svg>