<?xml version="1.0" encoding="UTF-8"?>
<svg width="128pt" height="128pt" version="1.1" viewBox="0 0 128 128" xmlns="http://www.w3.org/2000/svg">
 <defs>
  <clipPath id="a">
   <path d="m23.695 24h80.609v80h-80.609z"/>
  </clipPath>
 </defs>
 <g clip-path="url(#a)">
  <path d="m67.664 70.719v8.5469h35.418c0.67578 0 1.2227 0.54688 1.2227 1.2227s-0.54688 1.2227-1.2227 1.2227h-25.648v20.762c0 0.67578-0.54688 1.2227-1.2188 1.2227-0.67578 0-1.2227-0.54687-1.2227-1.2227v-20.762h-8.5508c-0.67188 0-1.2188-0.54688-1.2188-1.2227v-10.992c0-0.67578 0.54688-1.2227 1.2188-1.2227h10.074l7.0742-24.762c0.20703-0.72266 1.0078-1.0898 1.6914-0.76953l18.32 8.5469c0.60938 0.28516 0.875 1.0117 0.58984 1.625-0.28516 0.60938-1.0117 0.875-1.625 0.58984l-17.023-7.9453-6.4883 22.715h24.027c0.67578 0 1.2227 0.54687 1.2227 1.2227 0 0.67578-0.54688 1.2227-1.2227 1.2227zm-24.426-26.871c-5.3984 0-9.7734-4.375-9.7734-9.7695 0-5.3984 4.375-9.7734 9.7734-9.7734 5.3945 0 9.7695 4.375 9.7695 9.7734 0 5.3945-4.375 9.7695-9.7695 9.7695zm0-2.4414c4.0469 0 7.3281-3.2812 7.3281-7.3281s-3.2812-7.3281-7.3281-7.3281-7.3281 3.2812-7.3281 7.3281 3.2812 7.3281 7.3281 7.3281zm6.7266 19.539h15.258c0.67188 0 1.2188 0.54688 1.2188 1.2227s-0.54688 1.2227-1.2188 1.2227h-15.879c-0.39062 0-0.75781-0.1875-0.98828-0.50391l-7.9844-10.977-3.1133 22.836 18.559 5.7969c0.43359 0.13672 0.75781 0.50391 0.83594 0.95312l3.6641 20.766c0.11719 0.66406-0.32422 1.2969-0.98828 1.4141-0.66406 0.11719-1.3008-0.32812-1.418-0.99219l-3.5312-20.031-18.836-5.8828c-0.56641-0.17969-0.92578-0.74219-0.84375-1.332l3.6641-26.871c0.089844-0.66797 0.70703-1.1328 1.375-1.043 0.34375 0.046874 0.63672 0.23437 0.82422 0.49219zm-25.047 28.094c-0.67578 0-1.2227-0.54687-1.2227-1.2227 0-0.67578 0.54688-1.2227 1.2227-1.2227h20.762c0.67578 0 1.2227 0.54688 1.2227 1.2227 0 0.67578-0.54688 1.2227-1.2227 1.2227z" fill="#4c25e0"/>
 </g>
</svg>
