<?xml version="1.0" encoding="UTF-8" standalone="no"?>
<!DOCTYPE svg PUBLIC "-//W3C//DTD SVG 1.1//EN" "http://www.w3.org/Graphics/SVG/1.1/DTD/svg11.dtd">
<svg>
  <g clip-path="url(#a)">
    <path d="m67.555 71.113v8.2969h34.379c0.65625 0 1.1875 0.53125 1.1875 1.1875 0 0.65234-0.53125 1.1836-1.1875 1.1836h-24.895v20.152c0 0.65625-0.53125 1.1875-1.1836 1.1875-0.65625 0-1.1875-0.53125-1.1875-1.1875v-20.152h-8.2969c-0.65625 0-1.1875-0.53125-1.1875-1.1836v-10.672c0-0.65234 0.53125-1.1836 1.1875-1.1836h9.7734l6.8672-24.035c0.20312-0.69922 0.98047-1.0547 1.6406-0.75l17.781 8.3008c0.59375 0.27734 0.85156 0.98047 0.57422 1.5742-0.27734 0.59375-0.98047 0.85156-1.5742 0.57422l-16.523-7.7109-6.2969 22.047h23.32c0.65625 0 1.1875 0.53125 1.1875 1.1836 0 0.65625-0.53125 1.1875-1.1875 1.1875zm-23.707-26.082c-5.8906 0-10.668-4.7734-10.668-10.668 0-5.8906 4.7773-10.668 10.668-10.668s10.668 4.7773 10.668 10.668c0 5.8945-4.7773 10.668-10.668 10.668zm0-4.7383c3.2734 0 5.9258-2.6562 5.9258-5.9297 0-3.2734-2.6523-5.9258-5.9258-5.9258-3.2734 0-5.9258 2.6523-5.9258 5.9258 0 3.2734 2.6523 5.9297 5.9258 5.9297zm-4.9492 7.5664c1.0586-0.77344 2.5391-0.53906 3.3086 0.51953l8.7734 12.066h14.203c1.3125 0 2.3711 1.0586 2.3711 2.3711 0 1.3086-1.0586 2.3672-2.3711 2.3672h-15.41c-0.75781 0-1.4688-0.35938-1.9141-0.97266l-6.0156-8.2695-2.4883 18.246 17.055 5.332c0.84375 0.26172 1.4727 0.97656 1.625 1.8516l3.5586 20.152c0.22656 1.2891-0.63281 2.5195-1.9219 2.7461-1.2891 0.22656-2.5195-0.63281-2.75-1.9219l-3.3047-18.734-17.59-5.4961c-1.1055-0.34375-1.7969-1.4375-1.6406-2.582l3.5547-26.078c0.082032-0.61719 0.41016-1.2031 0.95703-1.5977zm-12.832 41.035c-0.65625 0-1.1875-0.53125-1.1875-1.1875 0-0.65234 0.53125-1.1836 1.1875-1.1836h20.152c0.65625 0 1.1836 0.53125 1.1836 1.1836 0 0.65625-0.52734 1.1875-1.1836 1.1875z" fill="#007335"/>
  </g>
</svg>