<svg id="Layer_1" enable-background="new 0 0 512 512" height="512" viewBox="0 0 512 512" width="512" xmlns="http://www.w3.org/2000/svg"><path d="m108.698 389.739c-7.111-1.763-14.214-2.992-21.3-3.785 11.03-7.555 18.529-22.229 18.529-39.06 0-22.613-13.604-36.66-35.5-36.66s-35.495 14.047-35.495 36.66c0 16.802 7.474 31.451 18.471 39.017-7.151.79-14.259 2.033-21.3 3.843-20.702 5.327-32.103 16.836-32.103 32.413v40.784c0 3.822 3.099 6.919 6.919 6.919s6.919-3.097 6.919-6.919v-40.784c0-11.097 11.806-16.462 21.716-19.011 22.721-5.842 46.216-5.838 69.811.014 8.09 2.009 21.658 7.144 21.658 18.998v40.784c0 3.822 3.099 6.919 6.919 6.919s6.919-3.097 6.919-6.919v-40.784c-.001-15.537-11.726-27.357-32.163-32.429zm-38.27-65.667c9.883 0 21.662 3.959 21.662 22.822 0 16.613-9.919 30.646-21.662 30.646-11.739 0-21.658-14.034-21.658-30.646 0-18.862 11.78-22.822 21.658-22.822zm223.838 65.667c-7.11-1.763-14.212-2.993-21.294-3.785 11.029-7.555 18.528-22.229 18.528-39.059 0-22.613-13.604-36.66-35.5-36.66s-35.5 14.047-35.5 36.66c0 16.801 7.474 31.45 18.472 39.016-7.148.79-14.256 2.034-21.296 3.844-20.703 5.324-32.104 16.836-32.104 32.412v40.784c0 3.822 3.099 6.919 6.919 6.919s6.919-3.097 6.919-6.919v-40.784c0-11.097 11.806-16.464 21.716-19.011 22.716-5.84 46.207-5.84 69.806.014 8.09 2.009 21.658 7.144 21.658 18.998v40.784c0 3.822 3.099 6.919 6.919 6.919s6.919-3.097 6.919-6.919v-40.784c0-15.537-11.725-27.357-32.162-32.429zm-38.266-65.667c9.883 0 21.662 3.959 21.662 22.822 0 16.613-9.919 30.646-21.662 30.646s-21.662-14.034-21.662-30.646c0-18.862 11.779-22.822 21.662-22.822zm223.838 65.667c-7.111-1.763-14.214-2.992-21.298-3.785 11.029-7.555 18.528-22.229 18.528-39.06 0-22.613-13.599-36.66-35.495-36.66s-35.5 14.047-35.5 36.66c0 16.802 7.474 31.45 18.473 39.017-7.151.79-14.26 2.033-21.302 3.843-20.703 5.327-32.104 16.836-32.104 32.412v40.784c0 3.822 3.099 6.919 6.919 6.919s6.919-3.097 6.919-6.919v-40.784c0-11.097 11.806-16.462 21.716-19.011 22.73-5.842 46.216-5.838 69.811.014 8.09 2.009 21.658 7.144 21.658 18.998v40.784c0 3.822 3.099 6.919 6.919 6.919s6.918-3.097 6.918-6.92v-40.784c0-15.535-11.725-27.355-32.162-32.427zm-38.266-65.667c9.878 0 21.658 3.959 21.658 22.822 0 16.613-9.919 30.646-21.658 30.646-11.743 0-21.662-14.034-21.662-30.646 0-18.862 11.779-22.822 21.662-22.822zm-221.766-35.543c0 3.822 3.099 6.919 6.919 6.919s6.919-3.097 6.919-6.919c0-15.536-11.725-27.356-32.162-32.428-7.111-1.763-14.214-2.992-21.298-3.785 11.033-7.554 18.533-22.229 18.533-39.06 0-22.613-13.604-36.66-35.5-36.66s-35.5 14.047-35.5 36.66c0 16.802 7.475 31.452 18.476 39.017-7.15.79-14.258 2.033-21.296 3.843-20.707 5.322-32.113 16.833-32.113 32.412 0 3.822 3.099 6.919 6.919 6.919s6.919-3.097 6.919-6.919c0-11.099 11.811-16.464 21.721-19.011 22.716-5.847 46.198-5.84 69.806.016 8.09 2.008 21.657 7.143 21.657 18.996zm-56.59-98.094c9.883 0 21.662 3.959 21.662 22.822 0 16.61-9.919 30.644-21.662 30.644s-21.662-14.034-21.662-30.644c0-18.863 11.779-22.822 21.662-22.822zm242.162 98.094c0 3.822 3.099 6.919 6.919 6.919s6.919-3.097 6.919-6.919c0-15.536-11.725-27.354-32.167-32.428-7.113-1.762-14.215-2.992-21.298-3.784 11.033-7.554 18.533-22.229 18.533-39.061 0-22.613-13.604-36.66-35.5-36.66s-35.5 14.047-35.5 36.66c0 16.802 7.475 31.451 18.475 39.017-7.15.79-14.257 2.033-21.295 3.844-20.707 5.32-32.108 16.831-32.108 32.412 0 3.822 3.099 6.919 6.919 6.919s6.919-3.097 6.919-6.919c0-11.099 11.806-16.464 21.716-19.011 22.721-5.847 46.212-5.84 69.806.016 8.09 2.007 21.662 7.144 21.662 18.995zm-56.594-98.094c9.883 0 21.662 3.959 21.662 22.822 0 16.61-9.919 30.644-21.662 30.644s-21.662-14.034-21.662-30.644c0-18.863 11.779-22.822 21.662-22.822zm-156.298-29.453c3.82 0 6.919-3.097 6.919-6.919 0-11.099 11.811-16.464 21.721-19.011 22.712-5.845 46.203-5.842 69.806.016 8.09 2.005 21.658 7.14 21.658 18.995 0 3.822 3.099 6.919 6.919 6.919s6.919-3.097 6.919-6.919c0-15.541-11.725-27.358-32.162-32.428-7.112-1.763-14.214-2.992-21.298-3.785 11.032-7.554 18.532-22.228 18.532-39.059 0-22.613-13.604-36.66-35.5-36.66s-35.5 14.047-35.5 36.66c0 16.802 7.475 31.452 18.476 39.017-7.15.79-14.258 2.033-21.296 3.843-20.707 5.322-32.113 16.833-32.113 32.412.001 3.822 3.1 6.919 6.919 6.919zm63.514-105.014c9.883 0 21.662 3.959 21.662 22.822 0 16.61-9.919 30.644-21.662 30.644s-21.662-14.034-21.662-30.644c0-18.862 11.779-22.822 21.662-22.822zm223.838 65.667c-7.11-1.763-14.214-2.993-21.297-3.786 11.028-7.555 18.527-22.228 18.527-39.059 0-22.613-13.599-36.66-35.495-36.66s-35.5 14.047-35.5 36.66c0 16.801 7.474 31.449 18.472 39.016-7.151.79-14.26 2.034-21.301 3.845-20.703 5.327-32.104 16.838-32.104 32.412 0 3.822 3.099 6.919 6.919 6.919s6.919-3.097 6.919-6.919c0-11.097 11.806-16.462 21.716-19.011 22.721-5.847 46.216-5.838 69.811.014 8.09 2.009 21.658 7.144 21.658 18.998v40.782c0 3.822 3.099 6.919 6.919 6.919s6.919-3.097 6.919-6.919v-40.782c-.001-15.537-11.726-27.357-32.163-32.429zm-38.266-65.667c9.878 0 21.658 3.959 21.658 22.822 0 16.613-9.919 30.646-21.658 30.646-11.743 0-21.662-14.034-21.662-30.646 0-18.862 11.779-22.822 21.662-22.822zm-434.653 145.796c3.82 0 6.919-3.097 6.919-6.919v-40.782c0-11.097 11.806-16.462 21.716-19.011 22.721-5.847 46.207-5.838 69.811.014 8.09 2.009 21.658 7.144 21.658 18.998 0 3.822 3.099 6.919 6.919 6.919s6.919-3.097 6.919-6.919c0-15.536-11.725-27.356-32.162-32.428-7.113-1.763-14.215-2.993-21.298-3.785 11.029-7.555 18.528-22.229 18.528-39.059 0-22.613-13.604-36.66-35.5-36.66s-35.495 14.047-35.495 36.66c0 16.802 7.474 31.45 18.471 39.017-7.151.79-14.259 2.034-21.3 3.844-20.704 5.324-32.105 16.836-32.105 32.41v40.782c0 3.822 3.099 6.919 6.919 6.919zm63.509-145.796c9.883 0 21.662 3.959 21.662 22.822 0 16.613-9.919 30.646-21.662 30.646-11.739 0-21.658-14.034-21.658-30.646 0-18.862 11.78-22.822 21.658-22.822z"/></svg>