<?xml version="1.0" encoding="UTF-8" standalone="no"?>
<svg xmlns="http://www.w3.org/2000/svg" xml:space="preserve" width="512.547" height="289.34799" overflow="visible" viewBox="0 0 512.547 289.348">
  <switch>
    <g>
      <path stroke="#000" d="M55.212 8.688c7.101-4.078 10.224-2.286 15.375 2.625 2.034 1.938 5.472 3.367 5.938 6.313.416 2.633 4.102 3.673 5.688 5.813 1.77 2.388 6.833 14.441 6.25 17.063-.753 3.388-2.143 5.815 2.694 3.512 2.574-1.226 4.565-.581 6.931-1.699.764-.361 1.688-1.025 2.73-1.903 1.042-.878 2.202-1.97 3.449-3.18 3.946-3.542 8.946-8.542 12.924-12.551.91-.805 1.852-1.569 2.817-2.285 2.329-1.559 4.285-2.183 5.529-1.159 8.105 6.675-13.759 15.472-15.574 21.204 5.726.393 10.563 1.612 16.06 2.37 6.197.855 6.949-.026 11.588-3.042 10.206-6.634 15.453 2.443 22.352 8.421.168-4.257 2.866-3.475 4.5-1.25 1.369 1.864-.433 4.049 2 5.875 1.601-12.621 23.099-6.602 16.375 5.625-3.609 6.563-7.61 4.913-12.875 5.5-1.917.214-11.01 3.174-7.25-2.375-1.511.685-1.922 1.426-2.039 3.413-.082 1.394-2.167 8.035-1.961 8.837 1.167 4.548 10.596 4.932 6.894 10.255-1.614 2.32.104 3.271-2.792 5.009-2.275 1.365-3.082 3.117-4.352 5.486-2.341 4.365-4.597 8.819-6.813 13.25-2.031 4.063-2.432 9.961-6.625 11.688-5.054 2.081-7.896 4.575-4.023 9.026 1.077 1.237 5.03 4.38 5.46 5.662.359 1.071-.731 3.862-.597 5.246.442 4.573 5.287 8.938 7.785 12.629 7.525 11.123-4.644 15.314-5.66 25.473-.507 5.066-4.634 8.773-4.903 14.027-.188 3.688.63 9.654 1.25 13.25.237 1.375 2.375-.15 2.375 1.188 0 .414-.736.762-.75.688-.074-.393-.533 2.945-.375 4 .599 4.008 2.912 8.051 3.764 12.098 1.018 4.836 2.24 11.156 5.315 15.111 3.907 5.023-1.608 8.32-5.044 11.756.134-.133 6.427 10.012 7.59 11.41 4.441 5.344 8.053 5.061 14.495 5.236 3.389.094 3.665 8.867 7.642 8.898 6.438.051 12.875.102 19.313.152 3.305.027 6.609.053 9.914.078 2.413.02.82-1.77 1.387-3.74 1.287-4.473 1.639-9.375 1.875-14 .498-9.76 1.909-19.119 2.792-28.836.218-2.402 2.443-12.846.708-14.789-1.72-1.926-11.27-.756-14.48-2.313-5.343-2.59-2.768-23.445-1.613-27.771.759-2.846 1.45-5.625 1.977-8.521.293-1.615-1.579-3.289-1.024-4.553 2.026-4.613 2.788-9.016 3.641-13.967.687-3.984 2.642-12.326 1.25-15.875-1.63-4.157-7.766-5.598-11.375-6.875-5.505-1.948-6.921-5.38-10.843-9.621-4.817-5.208-4.491-5.417-3.97-11.879.439-5.452 2.941-9.328 6.063-13.75 3.432-4.861 2.063-9.05 5.301-13.836 2.549-3.769.475-10.537 3.777-13.709 3.501-3.363 6.808-7.027 10.794-9.813 6.24-4.361 23.406-10.564 17.127-20.642-1.585-2.545-4.171-2.308-5.16-5.142-.566-1.623-2.206-4.617-2.215-6.358-.014-2.634 1.802-3.379 1.688-5.563-.116-2.197-1.377-4.287-1.438-6.438-.288-10.336 9.703-17.58 18.658-18.177 5.479-.365 10.385-1.631 15.777.228 4.736 1.633 4.388 6.92 5.943 10.391 2.147 4.792.664 7.726 2.372 12.184.711 1.861 2.891 3.918 3.125 5.875.379 3.191-1.527 2.522-1.875 4.875-.363 2.445 1.17 5.041.777 7.48-.48 2.972-.861 3.77 2.598 3.77 1.242 0 4.129.535 6.811.834 2.682.299 5.158.361 5.594-.584 4.596-6.625 6.596-15.625 10.225-23.572.703-1.562 1.424-3.118 2.16-4.668 2.01-4.23 2.041-10.295 7.086-6.26 3.664 2.932-.836 7.838-2.273 11.742-.496 1.347-1.025 2.678-1.574 3.996-3.027 7.137-6.027 15.137-9.027 22.512 1.043.665 2.225.864 3.488.805 3.791-.175 8.318-2.667 12.059-1.836 4.836 1.075 7.387 8.447 12.953 7.531 1.305-.215 4.643-3.66 6.25-4.375 3.908-1.739 5.15-1.501 8.883.168 2.355 1.054 3.768 4.656 4.574 6.989.967 2.789 4.506 1.191 4.418 5.093-.625.083-1.25.167-1.875.25 1.18 3.1 3.607-.966 5.193-2.477 1.859-1.771 4.775-1.779 7.121-1.31 3.984.797 8.197 9.079 5.639 12.621-3.455 4.784-10.23 6.537-15.891 7.292-1.561.208-2.289-1.226-3.363-2.301-.963-.962-3.326.067-4.563.289-2.229.4-4.432.859-6.674 1.165-9.662 1.317 2.594 7.808-2.338 11.222-4.287 2.968-7.424 10.527-10.27 14.896-2.846 4.367-4.404 9.522-7.508 13.695-4 5.381-11.535 3.306-17.973 3.409 1.545 3.746.734 9.792 4.338 11.921 3.844 2.271 8.088.379 12.383.884 4.523.532 9.041 1.026 13.529 1.82 5.219.922 6.361 2.353 9.117 6.763 5.137 8.222 9.715 16.151 11.877 25.665.449 1.98-1.324 3.98-1.244 5.947.07 1.754 1.389 3.453 1.578 5.242.459 4.363 4.641 8.07 4.547 11.758 2.736-1.525 4.787-8.096 6.963-10.941 3.408-4.457 5.889-8.352 10.668-11.371 4.418-2.791 9.605-3.543 14.672-4.234 5.359-.73 6.496-2.244 4.947-7.828-2.539-9.152-10.523-18.133-9.068-28.112.787-5.386 3.768-9.637 8.297-12.682 4.621-3.108 5.689-6.138 8.447-10.875 4.568-7.852 11.264-14.508 14.59-23.101 1.297-3.354 7.1-6.813 9.461-9.939 2.912-3.854 5.785-8.208 10.584-9.532 5.137-1.417 10.545-1.791 15.717-3.189 2.531-.684-2.387-8.992-3.125-11.107-3.643-10.439-6.568-16.566-1.408-27.111 4.76-9.724 14.73-12.558 24.756-8.102 4.635 2.061 9.039 4.345 12.139 8.477 1.012 1.35.678 4.399 1.227 6.18.596 1.938 3.264 2.269 3.666 4.229 1.227 5.983.135 9.696-2.793 14.917-1.607 2.862-2.342 9.202 1.262 11.571 3.078 2.024 5.889-3.773 8.275-6.408 1.123-1.238 2.314-2.498 3.465-3.812 3.01-3.53 5.01-11.53 13.01-9.53 2 1 3 3 2 4-5 4-9 8-12.285 12.8-.801.893-1.598 1.789-2.377 2.703-.779.914-1.543 1.846-2.275 2.81-3.582 4.713.637 5.281 4.25 8.625 3.818 3.536 3.811 8.748 6.813 12.25 2.463 2.875 6.457-4.384 8.318 3.373.646 2.694.688 5.064 1.682 7.565.59 1.486 4.125 3.147 1.938 4.938-3.314 2.711 4.506-.679 6.08.799 3.139 2.941 5.092 8.539.25 11.287-5.383 3.056-7.369 2.276-12.018-1.773-.492 3.537 2.172 9.617.75 12.5-1.041 2.112-7.861 5.505-9.75 7.5-6.408 6.768-1.117 14.322-2.367 22.656-1.24 8.262-4.574 15.674-6.508 23.719-1.811 7.529-3.102 15.182-4.656 22.762-1.568 7.646-.463 17.424-7.229 22.41-2.498 1.84.902 19.131 1.139 22.615.58 8.539 1.404 17.08 2.779 25.529.5 3.074-.443 6.059 3.537 6.059 4.02 0 8.041.076 12.059-.084 5.475-.217 10.961-.602 16.439-.477 6.707.154 9.662-.717 10.248 6.693.709 8.982-18.846 5.641-25.262 5.494-22.043-.502-43.947.676-66.008.385-40.967-.539-81.967-.375-122.941.133-86.759 1.074-173.557.605-260.325.605-9.768 0-19.494.1-29.249.283-4.973.094-8.563-2.875-5.782-8.658 1.775-3.691 4.49-2.631 8.491-2.646 7.521-.029 15.043-.057 22.565-.086 5.77-.021 4.796-1.709 5.933-7.229 1.863-9.047 3.048-18.236 4.067-27.412 1.196-10.766 1.977-21.566 2.691-32.375.314-4.75 1.942-10.59-.945-14.482-3.125-4.213-1.98-8.678-4.488-12.957-4.396-7.498-1.649-16.975 1.686-24.822 3.97-9.34 2.437-17.465-.498-26.865-1.742 1.568-3.071 4.784-4.375 5.875-1.882 1.575-4.063 1.369-6.25 2.125-3.974 1.373-8.338 5.373-12.25 6-2.978.478-10.63-.543-13.25-2.125-4.246-2.565-6.126-6.463-5.031-10.98 2.17-8.952 5.16-18.803 8.733-27.236.754-1.779 3.34-2.476 4.173-4.159 1.281-2.588.002-4.297 2.063-6.688 2.68-3.108 4.646-6.192 6.456-9.563 2.533-4.716 5.126-7.048 6.731-11.625 1.976-5.634 3.052-5.377 8.267-7.924 5.991-2.926 19.056-15.221 6.798-17.757-8.42-1.742-9.322-16.17-8.611-23.704C36.422 12.895 46.17 9.412 55.212 8.688m76.25 47.833c-2.95 2.211-3.133 6.252-5.5 9-2.047 2.377-8.013 4.178-6.667 7.458 1.543 3.76 3.856 6.603 4.71 10.7.771 3.703.258 8.702 4.395 10.292 1.654.636 5.586-18.402 5.636-20.859.034-1.649 2.274-2.67 2.592-4.091.329-1.476-.577-3.002-.592-4.459l-.072-7.305c-.011-1.194-3.516-.698-4.502-.736M68.879 207.104c-1.013 3.883-2.142 7.711-2.929 11.646-.305 1.521-2.658 10.559-1.571 11.688 1.345 1.398 10.22-.076 12.015-.105 3.205-.055 7.658.762 10.568-.979-7.604-3.434 3.014-12.543-.852-15.766-2.609-2.174-5.065-4.598-8.404-4.861-3.037-.24-5.834-1.932-8.827-1.623m-17.75 50.584c4.141-.762 5.976-44.688 4.625-44.791-.539-.041-8.517 43.978-4.625 44.791m13.667-16.834c-2.438 1.018-1.904 4.305-1.583 6.5.632-.387.785-.029 1.417-.75 2.404 2.588 19.961 2.889 19.833-2.582-.133-5.678-5.443-1.482-8.037-2.717-3.204-1.525-8.177-.527-11.63-.451m-16.5 23.834c-.497 2.568-.994 5.135-1.458 7.709-.375 2.08-1.383 6.482 2.443 4.906 2.068-.852 2.083-.707 2.307-2.906.128-1.25.225-2.473.273-3.727.03-.773.683-4.25.185-4.814-.367-.418-3.004-.682-3.75-1.168m13.083-8.166c-.526 6.852-1.699 13.342-1.833 20.25 15.872.254 31.655.488 47.52.049 1.373-.037 9.958.781 10.813-.299 1.619-2.043-2.758-7.488-1.386-9.914 3.229-5.709 3.181-13.904 1.636-20.086-1.401.672-3.059 6.334-3.282 8.059-.489 3.771.691 7.139.181 10.883-.238 1.746-3.276 2.084-4.609 2.313-1.379.236-2.763 1.766-3.8 2.676-2.965 2.604-5.963 3.582-10.011 3.385-4.121-.199-7.313-.779-10.951-2.816-4.249-2.381-4.46-4.539-5.86-8.916-2.379-7.436-11.969-5.988-18.418-5.584m163.667-39.834c-.808 4.475-2.889 11.344 4.499 10.385 2.327-.301 15.726.848 15.763.729.649-2.066 1.768-5.076 1.254-7.23-.85-3.553-.438-3.543-3.981-3.604-5.845-.1-11.69-.2-17.535-.28m-2.334 18.834c-.379 3.199-.743 6.4-1.154 9.596-.658 5.119-.085 5.162 4.904 5.941 6.34.99 12.867 1.33 19.25 1.963.181-3.162.563-6.373.479-9.539-.025-.963.48-4.785-.145-5.461-.673-.727-3.5-.818-4.5-1.084-3.119-.826-5.79-1.689-9.002-.648-2.704.877-1.996-.363-4.498-.934-1.735-.397-3.47.773-5.334.166m-2.916 24.5c-1.233 5.691-2.413 11.746-2.583 17.584 6.016-.152 12.029-.305 18.045-.455 2.067-.053 3.998-.455 6.039-.834.572-.105 2.56.094 2.6-.439.141-1.867.279-3.732.42-5.598.119-1.596 1.135-6.121.313-7.258-1.024-1.418-5.978-1.941-7.493-2.209-5.862-1.035-11.38-.875-17.341-.791m47.083-60c-1.588 4.764-1.25 9.197-1.25 14.232 0 6.637-5.693 2.613-9.167 4.018-2.004.809-1.223 3.164-1.266 5.326-.043 2.188-.068 4.369-.068 6.557 0 1.012-.58 5.215.793 5.188 2.645-.057 4.881-.375 7.481-.902 4.449-.9 9.396-.336 13.938-.336 3.586 0 9.381.592 12.598-1.389.781-.479 2.115-.758 1.732-1.721-.467-1.166-.934-2.332-1.4-3.498-1.002-2.504-1.895-3.365-2.084-6.127-.307-4.43-1.813-8.154-3.854-12.082-.988-1.9-2.211-2.41-.951-4.336.594-.908 1.176-3.914-.197-3.943-2.809-.057-10.846-1.807-12.721.764-1.199-1.517-1.508-2.386-3.584-1.751m-12.583 43.832c-.66 7.299-1.479 14.607-2 21.918-.136 1.898-.18 3.807-.27 5.709-.061 1.258-.776 4.131.007 5.197 1.257 1.715 4.279.854 6.283.813 16.414-.33 32.844-.369 49.23-1.387-.33-.775-1.076-3.754-1.852-3.967-1.912-.525-2.947-.623-4.203-2.131-1.926-2.311-2.248-5.877-2.945-8.652-1.58-6.281-3.107-12.324-5.107-18.48-.334-1.029-18.814-.502-20.625-.574-6.15-.247-12.382 1.005-18.518 1.554m129.854-40.479c-2.764 6.094-3.6 12.227-3.947 18.895-.072 1.371-.668 3.666-.084 4.949.348.768 2.58.293 3.326.277 2.393-.049 4.787-.1 7.182-.148.838-.018 3.965.439 4.648-.098 1.002-.789 2.016-7.334 2.361-8.764.859-3.566 1.953-7.02 2.723-10.611.416-1.941 1.568-2.551-.5-3.305-1.684-.611-2.859-.816-4.645-.951-3.782-.286-7.292-.558-11.064-.244m-12.5 1.875c-1.412 1.195-.631 3.826-.266 5.391 1.028-1.478 2.04-4.113.266-5.391m-.937 11.375c-1.496 1.426-3.988 3.199-4.486 5.295-.6 2.523-1.244 4.951-2.885 7.02-.951 1.199-4.557 4.889-4.258 6.426.385 1.992.563 1.656 2.59 1.824 1.66.139 2.469.738 3.906 1.629 1.219.754 3.549 3.674 3.697 1.795.207-2.627.34-5.27.652-7.885.316-2.646.82-5.332.924-7.994.071-1.822 1.21-6.828-.14-8.11m8.312 18.875c-2.254 4.297-2.541 10.74-3.27 15.496-.762 4.986-3.533 12.328-2.168 17.254 4.416-2.373 6.012-6.668 11.277-7.766.748-.156-.186-2.131-.471-2.566-.908-1.381-.939-1.395-.404-2.947.715-2.074 1.795-3.961 2.785-5.908 1.08-2.125 1.957-4.318 2.895-6.506.473-1.104.984-2.135 1.219-3.311.025-.129.986-2.756 1.012-2.684-.617-1.81-10.984-1.005-12.875-1.062M366.9 247.875c-4.07 2.238-7.436 4.459-11.947 5.922-2.197.713-4 2.25-6.406 2.469-2.506.229-5.014.455-7.521.672 1.145 2.473 2.727 4.402 3.371 7.047.84 3.438.012 4.221 3.969 5.211 2.238.559 4.652.006 6.969.586.934.232 3.063.721 3.566 1.594.424.736.291 2.582.813 3.625 1.752-1.229 2.846-3.287 4-5.063 1.443-2.221 1.182-4.574 1.5-7.156.627-5.088 2.967-9.844 2.75-14.969-.357.021-.71.043-1.064.062m54.438 2.938c-.828.291-3.521.732-3.838 1.535-.703 1.775-1.203 3.313-1.563 5.186-.572 2.975-.723 6.018-1.316 8.988-.301 1.498-2.563 8.785-1.283 10.041.506.498 4.049-.023 4.75-.027 1.854-.012 3.707-.023 5.563-.035-.092-5.088-.184-10.174-.273-15.262-.033-1.877-.068-3.756-.102-5.633-.03-1.645.519-5.359-1.938-4.793m8.625 8.312c.188 4.311.377 8.619.566 12.93.18 4.113-.574 4.391 3.445 4.355 5.254-.043 10.508-.088 15.76-.131 2.529-.021 5.061-.043 7.59-.064.541-.004 2.76.334 3.201-.027 1.203-.982-.684-7.619-.936-9.512-.469-3.539.115-8.326-4.443-8.18-8.396.274-16.783.495-25.183.629m7.75-52.562c-2.045 3.066-4.693 6.219-6.25 9.563-1.451 3.115-1.627 7.977-1.43 11.313.461 7.861.666 15.754.805 23.625 9.07-.203 18.121-.752 27.188-1.125-1.094-9.506-1.875-18.943-2.521-28.494-.035-.518.098-4.146-.395-4.363-2.307-1.012-4.613-2.023-6.918-3.033-3.885-1.707-6.557-5.953-10.479-7.486m-15.938 32.75c.033 1.684-2.402 4.221-.168 4.965 1.686.562 1.635-4.119.168-4.965M297.545 66.771c-6.17 3.835-10.496 6.454-17.75 7.333 1.881 2.542 4.391 4.099 6.834 6.083.887-1.587 3.088-7.851 5.611-7.457 2.709.423 2.455.249 3.725-2.166.644-1.222 1.898-2.304 1.58-3.793m40.418 1.667c-.404.118-.799.457-1.168.667.352.399 1.027.924 1.5 1.167.537-.761.461-1.381-.332-1.834m-132.751 43.667c-1.478 1.136-.702 3.014 1.083 2.917 0-1.22.343-2.619-1.083-2.917m200.417 11.75c-3.916 2.197-6.438 4.693-9.232 8.187-1.066 1.333-2.123 3.184-1.932 4.924.277 2.484 1.225 3.706 2.617 5.817.68 1.03 3.539-3.231 3.793-3.549 1.193-1.491 2.326-2.982 3.434-4.538.928-1.304 2.805-3.29 2.719-5.03-.116-2.381-.413-3.644-1.399-5.811m1 20.333c-1.41 1.505-2.676 2.922-3.85 4.611-.627.9-2.514 4.801-.316 4.807 1.48.004 3.205-3.033 3.785-4.104.412-.762.166-1.752.137-2.602-.014-.383.328-.844.486-1.184.203-.432-.129-1.078-.242-1.528" fill="blue"/>
    </g>
  </switch>
</svg>